<?xml version="1.0" standalone="no"?>
<!DOCTYPE svg PUBLIC "-//W3C//DTD SVG 20010904//EN"
 "http://www.w3.org/TR/2001/REC-SVG-20010904/DTD/svg10.dtd">
<svg version="1.0" xmlns="http://www.w3.org/2000/svg"
 width="640.000000pt" height="416.000000pt" viewBox="0 0 640.000000 416.000000"
 preserveAspectRatio="xMidYMid meet">

<g transform="translate(0.000000,416.000000) scale(0.100000,-0.100000)"
fill="#000000" stroke="none">
<path d="M2315 3456 c-136 -22 -248 -59 -377 -123 -38 -18 -68 -37 -68 -41 0
-5 10 -18 23 -30 l24 -22 96 45 c257 122 573 142 847 53 95 -30 240 -104 296
-150 27 -21 80 -65 118 -96 120 -98 233 -257 297 -417 123 -308 110 -646 -36
-940 -67 -136 -126 -214 -246 -329 l-92 -90 -120 130 c-233 250 -306 318 -391
359 -101 50 -206 59 -313 27 -112 -35 -183 -85 -396 -284 -111 -103 -207 -187
-213 -188 -5 0 -23 14 -40 31 l-29 30 65 62 c431 407 478 474 488 692 5 121
-12 196 -69 305 -46 89 -107 161 -334 396 l-169 176 48 41 47 42 -28 27 -29
28 -39 -40 c-41 -42 -59 -49 -72 -26 -4 7 -75 82 -156 166 l-148 152 -33 -31
-32 -31 -32 32 -32 33 -32 -33 -33 -32 80 -80 79 -80 -34 -35 -34 -35 82 -83
82 -83 -30 -29 c-16 -16 -30 -32 -30 -36 0 -4 23 -32 51 -63 l50 -55 -36 -90
c-127 -317 -124 -637 8 -955 l41 -99 -113 -106 -112 -106 33 -33 33 -34 -130
-123 -130 -124 33 -34 33 -34 -127 -120 -127 -120 31 -34 30 -33 171 163 172
164 33 -32 34 -33 143 138 c79 76 161 154 181 173 l38 35 30 -29 c16 -16 30
-32 30 -36 0 -4 -101 -100 -224 -214 l-225 -208 26 -32 27 -33 78 71 c44 40
84 74 89 76 6 2 23 -12 39 -30 l28 -34 -33 -35 -34 -35 27 -32 27 -32 204 191
c160 149 209 189 225 185 12 -3 53 -19 92 -35 266 -112 613 -116 887 -10 l80
30 140 -148 c78 -82 185 -194 238 -248 l97 -100 37 28 c20 15 38 26 39 25 8
-11 555 -600 587 -634 l39 -39 29 28 30 29 -75 81 -75 81 36 30 35 30 -460
487 -459 487 108 108 c242 242 355 498 368 833 8 219 -32 401 -131 597 -170
337 -470 566 -848 649 -98 21 -331 27 -433 10z m-488 -1105 c56 -90 52 -207
-11 -295 -18 -25 -102 -112 -186 -192 l-154 -146 -22 43 c-12 24 -33 80 -48
124 -85 261 -72 563 35 812 l20 47 172 -178 c95 -98 182 -195 194 -215z m777
-820 c48 -24 352 -339 339 -352 -11 -9 -153 -53 -228 -70 -91 -20 -341 -18
-445 4 -102 22 -255 78 -255 93 0 13 306 298 338 316 78 42 175 45 251 9z"/>
<path d="M5 2788 c-3 -7 -4 -247 -3 -533 l3 -520 38 -3 37 -3 0 110 0 111 123
0 c67 0 148 4 181 10 233 38 404 259 368 477 -28 169 -153 303 -327 349 -68
19 -414 20 -420 2z m419 -82 c103 -32 196 -119 232 -218 9 -24 16 -75 17 -113
1 -115 -57 -217 -161 -284 -74 -47 -149 -62 -298 -59 l-129 3 -3 335 c-1 184
0 341 3 349 7 19 268 9 339 -13z"/>
<path d="M4295 2778 c-3 -13 -4 -252 -3 -533 l3 -510 38 -3 37 -3 0 130 0 131
163 0 c105 0 181 5 215 14 l53 13 20 -46 c11 -25 39 -89 63 -141 42 -93 44
-95 79 -98 30 -3 37 0 37 14 0 9 -29 82 -65 162 l-65 144 50 45 c205 184 152
542 -99 666 l-65 32 -228 3 -227 3 -6 -23z m501 -90 c230 -121 227 -472 -4
-585 -55 -27 -63 -28 -239 -31 l-183 -4 0 327 0 327 188 -4 c181 -3 189 -4
238 -30z"/>
<path d="M5647 2793 c-11 -11 -8 -48 5 -61 8 -8 62 -12 175 -12 l163 0 0 -495
0 -495 35 0 35 0 0 495 0 495 159 0 c171 0 186 4 179 52 l-3 23 -371 3 c-204
1 -373 -1 -377 -5z"/>
<path d="M4363 1404 c-61 -30 -90 -134 -59 -207 23 -56 50 -72 121 -72 49 0
68 4 85 20 74 66 61 219 -23 258 -44 21 -83 21 -124 1z m106 -29 c38 -19 55
-63 49 -127 -6 -63 -40 -98 -93 -98 -54 0 -87 35 -93 100 -6 63 16 114 57 129
37 13 48 13 80 -4z"/>
<path d="M4620 1390 c-6 -12 -9 -69 -8 -142 3 -108 5 -123 21 -126 15 -3 17 5
17 67 l0 71 76 0 c56 0 75 3 72 13 -3 8 -30 13 -76 15 l-72 3 0 44 0 45 85 0
c69 0 85 3 85 15 0 12 -17 15 -95 15 -84 0 -95 -2 -105 -20z"/>
<path d="M4999 1383 c-16 -43 -8 -241 11 -253 23 -15 138 -12 169 5 49 25 57
91 17 123 -24 18 -24 19 -5 35 25 22 25 71 -1 97 -17 17 -33 20 -100 20 -79 0
-81 -1 -91 -27z m171 -24 c9 -16 8 -26 -5 -45 -13 -21 -23 -24 -75 -24 l-60 0
0 45 0 45 65 0 c55 0 66 -3 75 -21z m-9 -109 c13 -7 19 -21 19 -45 0 -44 -23
-57 -93 -53 l-52 3 -3 53 -3 52 56 0 c31 0 65 -5 76 -10z"/>
<path d="M5344 1353 c-44 -99 -84 -203 -84 -218 0 -32 28 -13 44 30 l18 45 64
0 65 0 20 -45 c20 -44 32 -54 44 -35 3 5 -19 69 -49 142 -43 106 -59 134 -75
136 -18 3 -26 -7 -47 -55z m69 -36 c8 -23 18 -50 22 -59 6 -16 1 -18 -48 -18
l-55 0 25 65 c15 35 29 62 34 60 4 -3 14 -24 22 -48z"/>
<path d="M5570 1265 c0 -122 2 -145 15 -145 11 0 15 12 15 48 0 39 5 53 26 72
15 15 28 21 32 14 29 -43 105 -134 112 -134 26 0 16 28 -34 90 -31 38 -56 72
-56 77 0 4 23 31 52 60 44 44 49 53 34 59 -13 5 -35 -10 -85 -60 -36 -36 -70
-66 -74 -66 -4 0 -7 29 -7 65 0 51 -3 65 -15 65 -13 0 -15 -23 -15 -145z"/>
<path d="M5833 1394 c-10 -27 3 -208 17 -231 19 -29 52 -43 106 -43 93 0 114
34 114 185 0 98 -1 105 -20 105 -19 0 -20 -7 -20 -110 0 -97 -2 -112 -20 -130
-31 -31 -93 -27 -119 6 -18 23 -21 41 -21 130 0 87 -3 104 -15 104 -9 0 -18
-7 -22 -16z"/>
</g>
</svg>
