<?xml version="1.0" standalone="no"?>
<!DOCTYPE svg PUBLIC "-//W3C//DTD SVG 20010904//EN"
 "http://www.w3.org/TR/2001/REC-SVG-20010904/DTD/svg10.dtd">
<svg version="1.0" xmlns="http://www.w3.org/2000/svg"
 width="139.000000pt" height="79.000000pt" viewBox="0 0 139.000000 79.000000"
 preserveAspectRatio="xMidYMid meet">

<g transform="translate(0.000000,79.000000) scale(0.100000,-0.100000)"
fill="#000000" stroke="none">
<path d="M612 683 c-10 -4 -9 -8 5 -18 14 -10 15 -16 5 -28 -8 -9 -12 -38 -10
-76 3 -64 13 -79 24 -36 3 14 10 25 14 25 9 0 24 -31 22 -42 -1 -5 16 -8 37
-8 28 0 41 5 45 17 4 10 4 14 0 10 -4 -4 -14 7 -21 25 -13 30 -12 33 24 67 21
20 41 36 45 36 4 0 13 6 19 13 10 10 0 12 -54 12 -51 0 -69 -4 -73 -15 -9 -22
-24 -18 -24 5 0 20 -26 26 -58 13z"/>
<path d="M770 580 c0 -5 5 -10 11 -10 5 0 7 5 4 10 -3 6 -8 10 -11 10 -2 0 -4
-4 -4 -10z"/>
<path d="M115 321 c0 -72 11 -67 17 7 3 34 1 52 -6 52 -7 0 -11 -23 -11 -59z"/>
<path d="M193 320 c23 -62 31 -71 41 -44 3 8 2 13 -3 10 -5 -4 -15 16 -22 44
-7 27 -18 50 -25 50 -9 0 -6 -17 9 -60z"/>
<path d="M248 358 c3 -12 11 -34 19 -48 7 -14 13 -31 13 -37 0 -18 17 -16 24
3 3 8 2 13 -3 10 -5 -4 -15 16 -22 44 -7 27 -18 50 -25 50 -8 0 -10 -8 -6 -22z"/>
<path d="M320 370 c0 -5 5 -10 10 -10 6 0 10 5 10 10 0 6 -4 10 -10 10 -5 0
-10 -4 -10 -10z"/>
<path d="M55 270 c3 -5 11 -10 16 -10 6 0 7 5 4 10 -3 6 -11 10 -16 10 -6 0
-7 -4 -4 -10z"/>
</g>
</svg>
