<?xml version="1.0" standalone="no"?>
<!DOCTYPE svg PUBLIC "-//W3C//DTD SVG 20010904//EN"
 "http://www.w3.org/TR/2001/REC-SVG-20010904/DTD/svg10.dtd">
<svg version="1.0" xmlns="http://www.w3.org/2000/svg"
 width="241.000000pt" height="180.000000pt" viewBox="0 0 241.000000 180.000000"
 preserveAspectRatio="xMidYMid meet">

<g transform="translate(0.000000,180.000000) scale(0.100000,-0.100000)"
fill="#000000" stroke="none">
<path d="M575 1718 c-77 -34 -141 -62 -142 -63 -2 -1 48 -116 111 -256 62
-140 115 -261 118 -269 8 -22 -83 -194 -145 -275 -64 -84 -153 -158 -215 -180
-25 -8 -69 -15 -99 -15 l-53 0 -70 -140 c-38 -77 -70 -143 -70 -148 0 -15 95
-42 150 -42 76 0 119 14 188 60 104 69 183 192 297 458 38 89 70 160 72 158 2
-1 58 -129 126 -282 l122 -279 174 -3 c137 -2 172 0 168 10 -3 7 -42 95 -86
194 -45 100 -81 188 -81 197 0 8 21 59 46 113 l46 99 24 -55 c14 -30 75 -169
136 -307 l111 -253 169 0 c92 0 168 4 168 9 0 5 -9 28 -19 52 -11 24 -137 314
-281 644 -144 330 -265 604 -269 608 -6 6 -271 -109 -287 -125 -2 -3 41 -107
96 -233 l101 -229 -48 -107 c-27 -61 -51 -103 -55 -97 -3 7 -85 193 -180 415
-95 222 -175 403 -178 403 -3 0 -68 -28 -145 -62z"/>
<path d="M460 125 c0 -85 3 -105 15 -105 11 0 15 16 17 68 l3 67 23 -37 c13
-21 30 -38 37 -38 7 0 24 17 37 38 l23 37 3 -67 c2 -52 6 -68 17 -68 12 0 15
20 15 105 0 124 -10 133 -60 55 l-33 -51 -34 51 c-53 78 -63 69 -63 -55z"/>
<path d="M822 218 c-8 -11 -82 -185 -82 -195 0 -2 9 -3 20 -3 13 0 24 10 30
25 8 21 16 25 50 25 34 0 41 -4 46 -25 4 -16 13 -25 25 -25 24 0 25 -1 -13 99
-32 87 -44 111 -58 111 -4 0 -12 -6 -18 -12z m41 -110 c-2 -5 -13 -8 -24 -8
-22 0 -24 16 -8 57 l11 28 13 -35 c7 -19 10 -38 8 -42z"/>
<path d="M1027 223 c-4 -3 -7 -51 -7 -105 0 -80 3 -98 15 -98 11 0 15 11 15
40 0 35 3 40 23 40 18 0 29 -10 43 -40 14 -29 25 -40 42 -40 l22 0 -20 40
c-19 37 -19 43 -5 63 37 52 -4 107 -80 107 -23 0 -45 -3 -48 -7z m98 -53 c0
-22 -5 -25 -37 -28 -36 -3 -38 -2 -38 28 0 30 2 31 38 28 32 -3 37 -6 37 -28z"/>
<path d="M1270 125 c0 -87 3 -105 15 -105 11 0 15 11 15 40 0 35 3 40 23 40
18 0 28 -10 42 -40 13 -30 24 -40 41 -40 l23 0 -26 45 c-13 25 -20 45 -15 45
5 0 15 13 22 29 22 54 -18 91 -101 91 l-39 0 0 -105z m105 45 c0 -22 -5 -25
-37 -28 -36 -3 -38 -2 -38 28 0 30 2 31 38 28 32 -3 37 -6 37 -28z"/>
<path d="M1530 125 c0 -87 3 -105 15 -105 12 0 15 18 15 105 0 87 -3 105 -15
105 -12 0 -15 -18 -15 -105z"/>
<path d="M1701 204 c-76 -64 -29 -184 71 -184 28 0 47 8 70 29 28 25 33 36 33
76 0 40 -5 51 -33 76 -43 38 -98 40 -141 3z m114 -29 c14 -13 25 -36 25 -50 0
-31 -41 -75 -70 -75 -29 0 -70 44 -70 75 0 31 41 75 70 75 12 0 32 -11 45 -25z"/>
<path d="M1930 215 c0 -10 11 -15 35 -15 l35 0 0 -90 c0 -73 3 -90 15 -90 12
0 15 17 15 90 l0 90 35 0 c24 0 35 5 35 15 0 12 -16 15 -85 15 -69 0 -85 -3
-85 -15z"/>
<path d="M2180 215 c0 -10 11 -15 35 -15 l35 0 0 -90 c0 -73 3 -90 15 -90 12
0 15 17 15 90 l0 90 35 0 c24 0 35 5 35 15 0 12 -16 15 -85 15 -69 0 -85 -3
-85 -15z"/>
</g>
</svg>
