<svg width="174" height="64" viewBox="0 0 174 64" fill="none" xmlns="http://www.w3.org/2000/svg">
<g clip-path="url(#clip0_49_204)">
<path fill-rule="evenodd" clip-rule="evenodd" d="M43.1186 9.86694L54.123 9.86815L54.1242 27.7362L36.2561 27.735L36.2549 23.7078L46.1266 13.8398L46.6084 13.3568L43.1186 9.86694Z" fill="#007D57"/>
<path d="M32.0426 0.00610352L23.0439 9.00837H28.6892V23.3516L32.0414 26.7026L45.3932 13.358L32.0426 0.00610352ZM29.7048 7.99644H25.4856L32.0426 1.43705L43.9623 13.358L32.0438 25.2716L29.7048 22.9326V7.99644Z" fill="#007D57"/>
<path fill-rule="evenodd" clip-rule="evenodd" d="M9.96436 9.86694V20.8713L12.9699 17.8682L13.4518 17.3851L23.8004 27.7362H27.8336L27.8312 9.86815L9.96436 9.86694Z" fill="#007D57"/>
<path d="M13.4526 18.6023L0.102539 31.9505L9.10441 40.954V35.3063H23.447L26.8063 31.9529L13.4526 18.6023ZM23.028 34.3004H8.09012V38.5172L1.53342 31.9505L13.4526 20.0332L25.3706 31.9517L23.028 34.3004Z" fill="#007D57"/>
<path fill-rule="evenodd" clip-rule="evenodd" d="M9.96436 54.0316V36.1611L27.8312 36.1636L27.8324 40.1931L17.9631 50.0612L17.4825 50.543L17.9644 51.026L20.9675 54.0304L9.96436 54.0316Z" fill="#007D57"/>
<path d="M35.3962 54.8914V40.5457L32.0452 37.1924L18.6958 50.5418L32.0464 63.8925L41.0487 54.8914H35.3962ZM32.0452 38.6233L34.3843 40.9636V55.9094H38.6107L32.0501 62.4676L20.1292 50.5479L32.0452 38.6233Z" fill="#007D57"/>
<path fill-rule="evenodd" clip-rule="evenodd" d="M54.1242 54.0316L36.2549 54.0304V36.1636H40.2869L50.155 46.0316L50.6356 46.5147L51.1186 46.0316L54.1218 43.0285L54.1242 54.0316Z" fill="#007D57"/>
<path d="M54.9823 22.9434V28.5947H40.6445L37.29 31.9517L50.6353 45.2987L63.9853 31.9517L54.9823 22.9434ZM55.9941 25.385L62.5545 31.9468L50.6353 43.8641L38.7209 31.9517L41.0635 29.6078H55.9941V25.385Z" fill="#007D57"/>
<path fill-rule="evenodd" clip-rule="evenodd" d="M72.1138 10.0286H76.531C79.0849 10.0286 80.9168 11.5223 80.9168 14.0606C80.9168 16.2921 79.0849 18.1723 75.6966 18.1723H74.8646V21.3843H72.1138V10.0286ZM75.792 16.0663C77.4958 16.0663 78.1056 15.1836 78.1056 14.1234C78.1056 12.9834 77.6407 12.1647 76.1736 12.1647H74.8646V16.0663H75.792Z" fill="#007D57"/>
<path fill-rule="evenodd" clip-rule="evenodd" d="M92.3325 20.7578L93.1041 18.7992C94.0633 19.1604 95.0827 19.3346 96.1073 19.3124C97.473 19.3124 98.0986 18.8958 98.0986 18.2038C98.0986 16.3575 92.702 16.855 92.702 12.9993C92.702 10.8149 94.7742 9.86694 96.7823 9.86694C98.5804 9.86694 99.4486 10.2546 100.331 10.6386L99.544 12.5344C98.7096 12.2929 98.0177 12.0683 96.862 12.0683C95.7064 12.0683 95.3683 12.503 95.3683 12.9848C95.3683 14.4906 100.863 14.4906 100.863 18.1133C100.863 20.6032 98.485 21.5657 96.1387 21.5657C94.2767 21.5657 93.185 21.2275 92.3325 20.7626" fill="#007D57"/>
<path fill-rule="evenodd" clip-rule="evenodd" d="M102.304 10.0286H105.035V14.639H109.853V10.0286H112.585V21.3843H109.853V16.7099H105.035V21.3843H102.304V10.0286Z" fill="#007D57"/>
<path fill-rule="evenodd" clip-rule="evenodd" d="M121.147 10.0286H117.419L113.596 21.3795H116.424L117.5 18.0551H121.066L122.142 21.3795H124.976L121.147 10.0286ZM118.141 16.0844L119.283 11.7143L120.424 16.0844H118.141Z" fill="#007D57"/>
<path fill-rule="evenodd" clip-rule="evenodd" d="M87.9458 10.0286H84.2193L80.3975 21.3795H83.2231L84.3003 18.0551H87.8661L88.9421 21.3795H91.7701L87.9458 10.0286ZM84.9427 16.0844L86.0826 11.7131L87.2237 16.0832L84.9427 16.0844Z" fill="#007D57"/>
<path d="M72.1138 26.8184H75.2908L78.3097 35.3364L81.779 26.8184H84.7979V37.6754H82.1895V33.6325L82.297 31.0846H82.2354L79.6948 37.6754H76.7797L74.6315 31.075H74.5699L74.7233 33.6386V37.6754H72.1138V26.8184Z" fill="#007D57"/>
<path d="M86.4951 35.2749C86.4951 33.1569 88.4272 32.727 90.0864 32.727H91.5439V32.2053C91.5439 31.4687 91.0681 31.2538 90.0248 31.2538C89.1783 31.2675 88.3373 31.3913 87.5227 31.6221L87.0168 29.7649C88.0945 29.3271 89.2456 29.098 90.4088 29.0898C93.0026 29.0898 94.0459 29.8264 94.0459 31.7138V35.444C94.0459 35.7205 94.3224 35.7809 94.7982 35.7966L94.7064 37.7286C94.506 37.7431 94.3067 37.7431 94.1027 37.7431C93.0895 37.7431 92.0148 37.5753 91.7854 36.8532C91.1707 37.3289 90.2965 37.8047 89.3703 37.8047C87.5433 37.8071 86.4951 36.951 86.4951 35.2749ZM91.5439 35.5357V34.2159L90.2856 34.2473C89.5333 34.2618 88.9815 34.5081 88.9815 35.1215C88.9815 35.613 89.4572 35.828 89.9173 35.828C90.4714 35.8155 91.0201 35.7169 91.5439 35.5357Z" fill="#007D57"/>
<path d="M96.2251 29.2892H98.7875V30.1345C99.2947 29.7505 100.4 29.0754 101.52 29.0754C104.144 29.0754 104.329 30.5245 104.329 32.4216V37.6756H101.781V32.6353C101.781 31.4845 101.52 31.284 100.66 31.284C100.011 31.2952 99.3722 31.4472 98.7875 31.7296V37.6756H96.2251V29.2892Z" fill="#007D57"/>
<path d="M105.694 35.2749C105.694 33.1569 107.626 32.727 109.286 32.727H110.744V32.2053C110.744 31.4687 110.269 31.2538 109.224 31.2538C108.378 31.2675 107.537 31.3913 106.723 31.6221L106.216 29.7649C107.294 29.3271 108.445 29.098 109.608 29.0898C112.202 29.0898 113.246 29.8264 113.246 31.7138V35.444C113.246 35.7205 113.522 35.7809 113.997 35.7966L113.906 37.7286C113.706 37.7431 113.507 37.7431 113.302 37.7431C112.289 37.7431 111.215 37.5753 110.985 36.8532C110.371 37.3289 109.496 37.8047 108.57 37.8047C106.742 37.8071 105.694 36.951 105.694 35.2749ZM110.744 35.5357V34.2159L109.485 34.2473C108.734 34.2618 108.181 34.5081 108.181 35.1215C108.181 35.613 108.656 35.828 109.117 35.828C109.671 35.8154 110.22 35.7168 110.744 35.5357Z" fill="#007D57"/>
<path d="M117.22 34.6144C117.086 34.7629 117.005 34.952 116.991 35.1517C116.991 35.4138 117.206 35.613 117.65 35.613H119.231C121.533 35.613 122.733 36.3182 122.733 38.0837C122.733 39.8032 121.367 41.1991 118.528 41.1991C116.056 41.1991 114.875 40.4468 114.875 39.0509C114.887 38.7093 114.977 38.375 115.14 38.0742C115.302 37.7734 115.532 37.5142 115.811 37.3169C115.605 37.1816 115.437 36.9968 115.322 36.7794C115.206 36.5621 115.147 36.3192 115.15 36.0731C115.15 35.444 115.504 34.7532 116.163 34.2618C115.473 33.8778 114.997 33.2184 114.997 32.1135C114.997 30.4556 116.394 29.0947 118.542 29.0947C119.273 29.0804 119.997 29.2323 120.66 29.539L123.347 29.3398V31.1306H122.073C122.119 31.4307 122.15 31.733 122.165 32.0363C122.165 33.7558 120.474 34.7375 118.604 34.7375C118.14 34.745 117.676 34.7037 117.22 34.6144ZM117.236 37.6695C117.103 37.6724 116.97 37.6671 116.837 37.6538C116.72 37.8542 116.656 38.0818 116.653 38.3143C116.653 38.8661 117.144 39.3117 118.448 39.3117C119.83 39.3117 120.689 38.9736 120.689 38.4218C120.689 37.8385 120.122 37.6695 119.446 37.6695H117.236ZM119.892 32.0061C119.892 31.331 119.432 30.7321 118.618 30.7321C117.697 30.7321 117.253 31.284 117.253 32.0821C117.253 32.7584 117.697 33.2341 118.588 33.2341C119.384 33.2341 119.891 32.6654 119.891 32.0061H119.892Z" fill="#007D57"/>
<path d="M124.219 33.6024C124.219 30.1791 125.984 29.0898 128.516 29.0898C131.156 29.0898 132.199 30.8082 132.199 33.3416V34.2618H126.765C126.75 35.5816 127.794 35.8316 129.129 35.8316C129.697 35.8316 130.649 35.6927 131.523 35.4935L131.907 37.3809C130.888 37.6948 129.827 37.8551 128.76 37.8566C125.999 37.853 124.219 36.951 124.219 33.6024ZM129.575 32.6195C129.606 31.6064 129.161 30.9012 128.332 30.9012C127.457 30.9012 126.89 31.5146 126.844 32.6195H129.575Z" fill="#007D57"/>
<path d="M133.719 29.289H136.282V30.1343C136.988 29.5969 138.001 29.0596 138.999 29.0596C140.195 29.0596 141.009 29.551 141.347 30.3335C141.992 29.7503 143.143 29.0596 144.232 29.0596C146.965 29.0596 146.918 31.0098 146.918 32.4214V37.6754H144.355V32.6351C144.355 31.6063 144.094 31.2839 143.296 31.2839C142.743 31.2839 142.038 31.5145 141.562 31.7596C141.587 31.9736 141.597 32.1891 141.592 32.4045V37.6754H139.045V32.6351C139.045 31.4843 138.768 31.3153 138.001 31.3153C137.404 31.3236 136.817 31.4651 136.282 31.7295V37.6754H133.719V29.289Z" fill="#007D57"/>
<path d="M148.401 33.6024C148.401 30.1791 150.167 29.0898 152.699 29.0898C155.339 29.0898 156.383 30.8082 156.383 33.3416V34.2618H150.949C150.934 35.5816 151.978 35.8316 153.314 35.8316C153.881 35.8316 154.833 35.6927 155.707 35.4935L156.091 37.3809C155.072 37.6948 154.011 37.8551 152.944 37.8566C150.187 37.853 148.401 36.951 148.401 33.6024ZM153.758 32.6195C153.789 31.6064 153.344 30.9012 152.515 30.9012C151.64 30.9012 151.072 31.5146 151.027 32.6195H153.758Z" fill="#007D57"/>
<path d="M157.907 29.2892H160.469V30.1345C160.976 29.7505 162.081 29.0754 163.202 29.0754C165.826 29.0754 166.011 30.5245 166.011 32.4216V37.6756H163.463V32.6353C163.463 31.4845 163.202 31.284 162.342 31.284C161.693 31.2952 161.054 31.4472 160.469 31.7296V37.6756H157.907V29.2892Z" fill="#007D57"/>
<path d="M168.465 35.06V31.1765H167.238V29.2891H168.465V27.5708H171.013V29.2891H173.606V31.1765H171.013V34.9067C171.013 35.5201 171.243 35.7205 171.934 35.7205C172.545 35.7053 173.152 35.6243 173.745 35.479L173.987 37.4896C173.342 37.7202 172.221 37.8736 171.608 37.8736C169.601 37.8688 168.465 37.178 168.465 35.06Z" fill="#007D57"/>
<path d="M71.6216 48.4322C71.6216 44.9013 73.8785 42.7688 77.5772 42.7688C79.1881 42.7688 80.1408 43.0755 80.9583 43.4438L80.2628 45.3312C79.2352 45.0547 78.8053 44.9472 77.6062 44.9327C75.6415 44.9013 74.2758 46.0062 74.2758 48.2788C74.2758 50.5514 75.7248 51.7626 77.9141 51.7626C78.7633 51.7805 79.6106 51.6772 80.4306 51.4559L80.9837 53.4194C79.9367 53.8034 79.0347 53.9773 77.6424 53.9773C73.6635 53.9773 71.6216 51.992 71.6216 48.4322Z" fill="#007D57"/>
<path d="M81.9321 49.6748C81.9321 46.8975 83.6662 45.1936 86.3216 45.1936C89.2982 45.1936 90.6337 46.8661 90.6337 49.5987C90.6337 52.4534 88.762 53.9725 86.1827 53.9725C83.4198 53.9773 81.9321 52.3 81.9321 49.6748ZM88.0254 49.5987C88.0254 48.2475 87.6873 47.2199 86.2757 47.2199C84.8942 47.2199 84.5102 48.2475 84.5102 49.6132C84.5102 51.0562 84.9401 51.9317 86.3059 51.9317C87.6716 51.9317 88.0266 51.0261 88.0266 49.5987H88.0254Z" fill="#007D57"/>
<path d="M92.168 45.4037H94.7316V46.249C95.4368 45.7117 96.4499 45.1743 97.4474 45.1743C98.6453 45.1743 99.4591 45.6658 99.796 46.4483C100.441 45.865 101.592 45.1743 102.682 45.1743C105.414 45.1743 105.368 47.1233 105.368 48.5361V53.7853H102.804V48.7547C102.804 47.7259 102.543 47.4034 101.745 47.4034C101.193 47.4034 100.487 47.6341 100.011 47.8792C100.037 48.0931 100.048 48.3086 100.042 48.5241V53.789H97.4945V48.7547C97.4945 47.6027 97.2179 47.4336 96.4499 47.4336C95.8533 47.4417 95.2661 47.5837 94.7316 47.849V53.789H92.168V45.4037Z" fill="#007D57"/>
<path d="M107.346 45.4037H109.893V46.0075C110.231 45.7165 111.152 45.1948 111.919 45.1948C114.222 45.1948 115.618 46.2538 115.618 49.216C115.618 52.7178 113.362 53.9435 110.922 53.9435C110.538 53.9435 110.197 53.8976 109.893 53.8819V57.1664H107.346V45.4037ZM113.04 49.286C113.04 47.7826 112.436 47.337 111.152 47.337C110.723 47.3551 110.299 47.436 109.894 47.5773V51.9003C110.254 51.9536 110.617 51.9843 110.981 51.9921C112.289 51.9921 113.041 50.857 113.041 49.2908L113.04 49.286Z" fill="#007D57"/>
<path d="M116.556 51.3943C116.556 49.2763 118.488 48.8464 120.147 48.8464H121.604V48.3247C121.604 47.5881 121.129 47.3732 120.085 47.3732C119.239 47.387 118.398 47.5108 117.583 47.7415L117.077 45.8867C118.155 45.4483 119.306 45.2188 120.469 45.2104C123.063 45.2104 124.106 45.9483 124.106 47.8357V51.5621C124.106 51.8375 124.383 51.8991 124.859 51.9147L124.767 53.8468C124.567 53.8625 124.367 53.8625 124.163 53.8625C123.15 53.8625 122.075 53.6935 121.846 52.9726C121.231 53.4483 120.357 53.9241 119.431 53.9241C117.599 53.9265 116.556 53.0667 116.556 51.3943ZM121.604 51.6551V50.3353L120.346 50.3655C119.594 50.3812 119.042 50.6263 119.042 51.2409C119.042 51.7312 119.518 51.9461 119.978 51.9461C120.532 51.9336 121.08 51.8354 121.604 51.6551Z" fill="#007D57"/>
<path d="M126.286 45.4037H128.849V46.249C129.355 45.865 130.46 45.1899 131.581 45.1899C134.205 45.1899 134.389 46.633 134.389 48.5361V53.7853H131.842V48.7546C131.842 47.6026 131.581 47.4034 130.721 47.4034C130.072 47.4137 129.433 47.5658 128.849 47.849V53.7889H126.286V45.4037Z" fill="#007D57"/>
<path d="M139.131 53.789H138.211L135.325 45.4086H138.072L139.521 50.3813L139.874 51.7471L140.289 50.3813L141.956 45.4038H144.538L140.432 57.1653H137.991L139.131 53.789Z" fill="#007D57"/>
</g>
<defs>
<clipPath id="clip0_49_204">
<rect width="174" height="64" fill="white"/>
</clipPath>
</defs>
</svg>
