<?xml version="1.0" standalone="no"?>
<!DOCTYPE svg PUBLIC "-//W3C//DTD SVG 20010904//EN"
 "http://www.w3.org/TR/2001/REC-SVG-20010904/DTD/svg10.dtd">
<svg version="1.0" xmlns="http://www.w3.org/2000/svg"
 width="454.000000pt" height="180.000000pt" viewBox="0 0 454.000000 180.000000"
 preserveAspectRatio="xMidYMid meet">

<g transform="translate(0.000000,180.000000) scale(0.100000,-0.100000)"
fill="#000000" stroke="none">
<path d="M2356 1774 c-19 -11 -41 -14 -66 -10 -24 4 -43 1 -56 -9 -10 -8 -36
-15 -56 -15 -36 0 -78 -27 -78 -48 0 -5 -17 -17 -37 -26 -21 -9 -48 -25 -60
-34 -22 -16 -22 -18 -7 -62 8 -25 25 -53 37 -62 l22 -18 -30 2 c-31 2 -55 -7
-55 -21 0 -4 20 -12 44 -19 38 -10 45 -16 48 -39 2 -17 11 -32 25 -37 l21 -10
-26 -34 c-23 -31 -27 -47 -32 -131 -3 -53 -9 -102 -13 -108 -12 -19 -68 -15
-104 7 -30 18 -33 18 -34 2 -3 -39 4 -58 30 -85 42 -43 95 -46 184 -12 40 15
84 32 99 37 15 5 34 18 43 28 16 18 18 17 52 -6 19 -13 51 -26 72 -29 20 -4
52 -14 71 -24 52 -27 86 -33 130 -21 43 12 60 33 60 77 0 27 -2 28 -47 28 -40
0 -49 4 -62 26 -13 24 -12 30 14 80 16 30 32 72 36 94 4 22 13 59 20 83 10 31
10 52 3 82 -6 22 -7 37 -3 34 12 -7 11 3 -5 39 -31 74 -36 90 -36 121 0 38
-30 71 -75 82 -16 4 -38 18 -48 31 -21 27 -41 28 -81 7z m78 -29 c21 -32 20
-40 -5 -63 l-20 -20 24 -6 c56 -14 127 -109 127 -172 0 -45 -30 -93 -75 -119
-53 -31 -79 -33 -43 -2 76 64 99 153 56 217 -27 40 -59 57 -35 19 8 -13 18
-37 21 -52 7 -31 -9 -103 -25 -113 -7 -4 -9 2 -5 17 6 22 5 22 -6 6 -7 -11
-30 -42 -52 -70 -21 -29 -44 -65 -52 -82 l-13 -30 -1 38 c0 21 5 47 11 59 18
34 2 31 -26 -6 -33 -43 -45 -93 -35 -138 5 -21 9 -26 10 -13 1 13 7 4 17 -24
9 -25 36 -64 61 -89 24 -25 37 -42 27 -39 -9 4 -23 7 -30 7 -22 0 -75 50 -95
91 -22 42 -27 137 -10 170 13 23 8 24 -29 5 -34 -18 -55 -49 -72 -107 -11 -36
-14 -40 -17 -20 -6 37 6 86 29 115 11 14 70 51 131 82 116 60 148 91 148 146
0 37 -44 85 -91 99 -47 15 -64 3 -29 -19 47 -31 80 -70 80 -95 0 -42 -39 -76
-146 -128 -133 -63 -144 -79 -144 -200 0 -94 -12 -144 -38 -154 -14 -5 -14 -7
-2 -15 11 -7 8 -11 -13 -19 -16 -6 -37 -11 -48 -11 -27 0 -75 26 -82 44 -5 12
-1 13 19 6 39 -15 61 -12 90 13 24 21 27 32 35 120 12 144 23 159 164 230 50
25 98 54 108 65 21 23 20 93 -2 100 -10 3 -11 -2 -6 -18 4 -12 3 -20 -1 -17
-5 2 -16 -11 -25 -29 -17 -34 -16 -35 5 -28 18 6 19 5 7 -10 -8 -10 -28 -16
-53 -16 -43 0 -93 -21 -101 -44 -3 -8 -20 -22 -37 -31 -25 -13 -35 -14 -46 -4
-15 13 -19 39 -5 39 4 0 25 14 46 30 21 17 47 30 59 30 18 0 15 6 -22 42 -37
38 -44 41 -62 30 -11 -6 -29 -12 -39 -12 -11 0 -23 -5 -26 -10 -13 -21 -27 3
-20 36 5 28 3 33 -10 28 -8 -3 -15 -2 -15 3 0 5 24 21 54 35 47 23 55 25 68
12 16 -17 51 -8 56 14 1 8 -2 11 -8 7 -5 -3 -10 -2 -10 4 0 5 6 12 13 14 6 3
-1 6 -16 6 -16 1 -26 5 -22 11 3 6 38 10 77 10 59 0 79 -5 117 -26 l46 -27
-22 25 c-29 31 -29 43 -1 62 32 23 63 20 82 -9z m62 -43 c11 -7 34 -46 34 -57
0 -3 -13 4 -30 17 -38 28 -42 65 -4 40z m-426 -182 c0 -5 -2 -10 -4 -10 -3 0
-8 5 -11 10 -3 6 -1 10 4 10 6 0 11 -4 11 -10z m49 -33 c-14 -7 -33 -18 -41
-24 -12 -11 -23 -10 -54 2 l-39 15 35 -5 c23 -3 43 0 55 10 11 8 31 14 45 14
l25 -1 -26 -11z m-9 -27 c0 -5 -5 -10 -11 -10 -5 0 -7 5 -4 10 3 6 8 10 11 10
2 0 4 -4 4 -10z m429 -122 c-7 -13 -29 -40 -51 -60 -32 -32 -38 -45 -38 -79 0
-31 3 -40 14 -36 9 4 16 -4 20 -24 3 -16 17 -41 31 -55 21 -21 34 -25 66 -22
21 2 39 0 39 -4 0 -19 -35 -38 -72 -38 -77 0 -149 107 -134 200 5 32 4 34 -9
16 -8 -11 -15 -27 -16 -35 0 -10 -4 -7 -9 7 -17 41 4 68 87 110 43 22 79 40
81 41 1 0 -3 -9 -9 -21z m-304 -180 c7 -42 5 -49 -18 -72 -14 -14 -35 -26 -47
-26 -18 0 -19 3 -9 21 6 12 15 53 20 91 5 37 14 78 21 91 14 24 12 30 33 -105z"/>
<path d="M2363 1734 c-3 -9 3 -24 15 -37 17 -17 23 -18 36 -7 9 7 16 19 16 27
0 13 -3 13 -16 3 -13 -11 -16 -10 -21 8 -6 26 -21 29 -30 6z"/>
<path d="M2050 1609 c0 -5 5 -7 10 -4 6 3 10 8 10 11 0 2 -4 4 -10 4 -5 0 -10
-5 -10 -11z"/>
<path d="M2170 1588 c0 -8 14 -25 31 -37 26 -19 29 -20 21 -4 -6 10 -20 27
-31 37 -17 15 -21 16 -21 4z"/>
<path d="M2239 980 c-34 -35 -35 -37 -15 -46 31 -14 32 -49 2 -69 -47 -31
-105 3 -78 45 9 15 7 21 -12 34 -22 14 -25 13 -41 -4 -17 -19 -17 -21 -1 -39
14 -16 15 -23 6 -41 -9 -17 -19 -20 -48 -18 -30 2 -38 7 -40 27 -3 18 0 22 12
18 11 -5 16 -1 16 13 0 24 -20 37 -30 20 -12 -20 -32 0 -27 26 3 17 0 24 -12
24 -9 0 -27 7 -39 16 -22 15 -22 15 4 -43 37 -83 46 -111 42 -125 -3 -7 1 -27
9 -45 7 -18 13 -48 13 -68 l0 -35 273 2 c229 3 272 5 269 17 -2 8 3 35 11 60
9 25 15 57 15 71 0 14 16 60 36 104 35 76 35 78 11 62 -13 -9 -31 -16 -40 -16
-11 0 -14 -6 -9 -24 7 -27 -11 -43 -30 -27 -10 8 -16 8 -24 -2 -11 -13 -1 -39
14 -38 5 1 9 -7 9 -16 0 -14 -9 -18 -39 -18 -50 0 -69 24 -42 54 18 20 18 22
1 41 -16 17 -19 18 -41 4 -19 -13 -21 -19 -12 -34 25 -39 -28 -74 -78 -51 -32
14 -30 60 3 77 l23 11 -23 12 c-13 7 -30 22 -38 35 l-14 22 -36 -36z m189
-180 c52 -5 96 -10 98 -12 2 -2 -1 -21 -7 -41 l-10 -37 -236 2 -237 3 -8 34
c-5 18 -7 35 -4 38 18 18 269 27 404 13z"/>
<path d="M2097 784 c-4 -4 -7 -18 -7 -31 0 -21 4 -23 46 -23 44 0 45 1 42 28
-3 23 -8 27 -38 30 -20 2 -39 0 -43 -4z m48 -34 c-5 -8 -11 -8 -17 -2 -6 6 -7
16 -3 22 5 8 11 8 17 2 6 -6 7 -16 3 -22z"/>
<path d="M2230 760 c0 -29 2 -30 45 -30 43 0 45 1 45 30 0 29 -2 30 -45 30
-43 0 -45 -1 -45 -30z m55 -10 c-5 -8 -11 -8 -17 -2 -6 6 -7 16 -3 22 5 8 11
8 17 2 6 -6 7 -16 3 -22z"/>
<path d="M2370 761 c0 -30 1 -31 46 -31 44 0 45 1 42 28 -3 24 -7 27 -45 30
-42 3 -43 2 -43 -27z m55 -11 c-5 -8 -11 -8 -17 -2 -6 6 -7 16 -3 22 5 8 11 8
17 2 6 -6 7 -16 3 -22z"/>
<path d="M2050 761 c0 -6 5 -13 10 -16 6 -3 10 1 10 9 0 9 -4 16 -10 16 -5 0
-10 -4 -10 -9z"/>
<path d="M2190 760 c0 -5 5 -10 10 -10 6 0 10 5 10 10 0 6 -4 10 -10 10 -5 0
-10 -4 -10 -10z"/>
<path d="M2330 760 c0 -5 5 -10 10 -10 6 0 10 5 10 10 0 6 -4 10 -10 10 -5 0
-10 -4 -10 -10z"/>
<path d="M2476 761 c-4 -5 -2 -12 3 -15 5 -4 12 -2 15 3 4 5 2 12 -3 15 -5 4
-12 2 -15 -3z"/>
<path d="M14 250 c-3 -14 -7 -31 -10 -37 -6 -21 11 -15 36 12 13 14 34 25 47
25 23 0 23 -2 23 -110 0 -91 -3 -110 -15 -110 -8 0 -15 -4 -15 -10 0 -6 27
-10 60 -10 33 0 60 4 60 10 0 6 -7 10 -15 10 -12 0 -15 19 -15 110 0 108 0
110 23 110 13 0 34 -11 47 -25 25 -27 42 -33 36 -12 -3 6 -7 23 -10 37 -5 25
-5 25 -126 25 -121 0 -121 0 -126 -25z"/>
<path d="M300 261 c0 -5 9 -11 20 -14 18 -5 20 -14 20 -105 0 -92 -2 -101 -22
-115 -22 -15 -20 -16 45 -16 38 -1 67 3 67 9 0 6 -9 10 -20 10 -18 0 -20 7
-20 55 l0 55 70 0 70 0 0 -55 c0 -42 -3 -55 -15 -55 -8 0 -15 -4 -15 -10 0 -6
29 -10 68 -9 64 0 66 1 45 16 -21 14 -23 23 -23 113 0 90 2 99 23 113 21 15
19 16 -45 16 -39 1 -68 -3 -68 -9 0 -5 7 -10 15 -10 11 0 15 -12 15 -50 l0
-50 -70 0 -70 0 0 46 c0 37 4 47 20 51 41 11 18 23 -45 23 -36 0 -65 -4 -65
-9z"/>
<path d="M670 260 c0 -5 7 -10 15 -10 12 0 15 -19 15 -110 0 -91 -3 -110 -15
-110 -8 0 -15 -4 -15 -10 0 -6 46 -10 119 -10 l119 0 6 31 c10 51 8 53 -23 20
-25 -27 -36 -31 -80 -31 l-51 0 0 55 c0 52 1 55 25 55 14 0 37 -11 51 -25 14
-14 27 -25 29 -25 3 0 5 25 5 55 0 30 -2 55 -5 55 -2 0 -15 -11 -29 -25 -14
-14 -37 -25 -51 -25 -24 0 -25 3 -25 51 l0 52 50 -5 c34 -4 59 -13 75 -28 31
-29 37 -24 20 18 l-14 32 -111 0 c-67 0 -110 -4 -110 -10z"/>
<path d="M1110 261 c0 -6 7 -11 15 -11 12 0 15 -19 15 -110 0 -91 -3 -110 -15
-110 -8 0 -15 -4 -15 -10 0 -6 29 -10 68 -9 64 0 66 1 45 16 -18 12 -23 25
-23 59 0 37 3 44 20 44 13 0 30 -19 53 -58 33 -56 34 -57 83 -60 48 -2 49 -2
28 15 -12 10 -35 38 -52 63 l-30 46 24 21 c31 28 30 53 -1 83 -22 21 -38 25
-120 28 -66 3 -95 1 -95 -7z m158 -23 c7 -7 12 -24 12 -38 0 -34 -17 -50 -52
-50 -27 0 -28 2 -28 50 0 48 1 50 28 50 15 0 33 -5 40 -12z"/>
<path d="M1430 261 c0 -5 9 -11 20 -14 18 -5 20 -14 20 -107 0 -93 -2 -102
-20 -107 -42 -11 -17 -23 48 -22 64 0 66 1 45 16 -21 14 -23 23 -23 115 0 91
2 100 20 105 41 11 18 23 -45 23 -36 0 -65 -4 -65 -9z"/>
<path d="M1597 238 c-2 -18 -3 -34 -2 -36 2 -2 14 8 28 22 15 14 38 26 52 26
l25 0 0 -104 c0 -96 -2 -105 -22 -119 -22 -15 -20 -16 45 -16 64 -1 89 11 47
22 -18 5 -20 14 -20 111 l0 106 27 0 c16 0 39 -11 55 -27 29 -27 34 -21 22 25
-6 21 -10 22 -129 22 l-123 0 -5 -32z"/>
<path d="M1905 238 c-7 -18 -12 -35 -10 -37 2 -2 18 8 35 23 24 20 43 26 76
26 l45 0 -73 -107 c-41 -60 -77 -114 -82 -120 -5 -10 18 -13 108 -13 l114 0
12 36 c14 41 7 56 -10 24 -6 -12 -27 -28 -45 -36 -34 -14 -95 -19 -95 -8 0 3
33 54 73 112 41 59 77 113 81 120 6 9 -18 12 -104 12 l-111 0 -14 -32z"/>
<path d="M2486 240 c-114 -101 -15 -270 134 -230 23 6 50 8 60 5 18 -6 20 -1
20 39 0 47 -14 61 -25 26 -9 -29 -54 -60 -85 -60 -15 0 -38 9 -51 19 -22 17
-24 27 -24 101 0 74 2 84 24 101 37 30 78 24 118 -16 19 -19 37 -35 39 -35 2
0 4 17 4 38 l0 37 -89 3 c-87 3 -90 2 -125 -28z"/>
<path d="M2867 252 c-10 -10 -17 -23 -17 -29 0 -26 -74 -170 -98 -190 l-27
-23 53 0 c33 0 51 4 47 10 -3 6 -13 10 -21 10 -17 0 -17 5 -4 31 9 15 22 19
63 19 52 0 77 -12 77 -37 0 -7 -7 -13 -15 -13 -8 0 -15 -4 -15 -10 0 -6 30
-10 71 -10 l71 0 -28 28 c-16 15 -51 73 -79 130 -27 56 -52 102 -56 102 -3 0
-13 -8 -22 -18z m43 -154 c0 -5 -20 -8 -45 -8 -25 0 -45 5 -45 10 0 6 10 30
21 52 l22 42 23 -44 c13 -25 23 -48 24 -52z"/>
<path d="M3080 261 c0 -6 7 -11 15 -11 12 0 15 -19 15 -110 0 -91 -3 -110 -15
-110 -8 0 -15 -4 -15 -10 0 -6 29 -10 68 -9 64 0 66 1 45 16 -18 12 -23 25
-23 59 0 37 3 44 20 44 13 0 29 -18 52 -60 l33 -60 50 0 50 0 -26 23 c-14 12
-37 40 -51 63 l-26 40 24 21 c30 27 30 45 0 79 -22 26 -29 28 -120 32 -67 3
-96 1 -96 -7z m158 -23 c7 -7 12 -24 12 -38 0 -34 -17 -50 -52 -50 -27 0 -28
2 -28 50 0 48 1 50 28 50 15 0 33 -5 40 -12z"/>
<path d="M3403 256 c14 -11 17 -30 17 -116 0 -86 -3 -105 -17 -116 -15 -11 1
-13 108 -14 123 0 127 1 133 22 3 13 6 31 6 42 0 15 -5 12 -29 -13 -25 -27
-36 -31 -80 -31 l-51 0 0 110 c0 91 3 110 15 110 8 0 15 5 15 10 0 6 -29 10
-67 10 -59 -1 -66 -2 -50 -14z"/>
<path d="M3637 238 c-2 -18 -3 -34 -2 -36 2 -2 14 8 28 22 15 14 35 26 47 26
19 0 20 -6 20 -106 0 -90 -3 -109 -17 -120 -16 -12 -9 -13 50 -14 38 0 67 4
67 10 0 6 -7 10 -15 10 -12 0 -15 19 -15 110 0 107 1 110 22 110 12 0 35 -12
50 -27 29 -27 34 -21 22 25 -6 21 -10 22 -129 22 l-123 0 -5 -32z"/>
<path d="M3969 231 c-34 -34 -39 -44 -39 -86 0 -78 32 -116 117 -140 36 -10
99 13 127 45 79 95 16 220 -112 220 -50 0 -58 -3 -93 -39z m148 2 c13 -19 18
-47 18 -93 0 -81 -21 -120 -65 -120 -15 0 -35 7 -44 15 -33 34 -34 168 -1 205
27 29 71 26 92 -7z"/>
<path d="M4248 253 c20 -14 22 -23 22 -113 0 -90 -2 -99 -22 -113 -22 -15 -21
-16 30 -16 33 -1 51 3 47 9 -3 6 -13 10 -21 10 -11 0 -14 19 -14 98 l1 97 57
-65 c31 -36 78 -87 104 -115 l48 -50 0 121 c0 115 1 122 23 137 21 15 20 16
-33 16 -55 1 -55 0 -32 -17 21 -16 23 -25 20 -82 l-3 -64 -70 82 -70 81 -55 0
c-53 0 -54 -1 -32 -16z"/>
<path d="M2245 148 c-15 -23 -15 -23 26 -26 30 -2 44 1 55 15 21 28 17 33 -25
33 -30 0 -44 -6 -56 -22z"/>
</g>
</svg>
