<?xml version="1.0" encoding="UTF-8"?>
<svg xmlns="http://www.w3.org/2000/svg" xmlns:xlink="http://www.w3.org/1999/xlink" width="254.2pt" height="78.5pt" viewBox="0 0 254.2 78.5" version="1.1">
<defs>
<clipPath id="clip1">
  <path d="M 56 24 L 254.199219 24 L 254.199219 78.5 L 56 78.5 Z M 56 24 "/>
</clipPath>
</defs>
<g id="surface1">
<g clip-path="url(#clip1)" clip-rule="nonzero">
<path style=" stroke:none;fill-rule:evenodd;fill:rgb(4.315186%,26.660156%,59.959412%);fill-opacity:1;" d="M 83.644531 24.992188 L 84.617188 25.007813 L 85.578125 25.0625 L 86.53125 25.144531 L 87.472656 25.265625 L 88.40625 25.414063 L 89.328125 25.597656 L 90.238281 25.8125 L 91.132813 26.058594 L 92.019531 26.335938 L 92.890625 26.636719 L 93.746094 26.96875 L 94.589844 27.332031 L 95.417969 27.71875 L 96.226563 28.132813 L 97.023438 28.582031 L 97.800781 29.046875 L 98.5625 29.539063 L 99.304688 30.058594 L 100.027344 30.601563 L 100.730469 31.167969 L 101.417969 31.757813 L 102.082031 32.371094 L 102.722656 33.003906 L 103.34375 33.660156 L 103.941406 34.339844 L 104.519531 35.03125 L 105.074219 35.746094 L 105.601563 36.484375 L 106.109375 37.234375 L 106.585938 38.007813 L 107.039063 38.792969 L 107.402344 39.476563 L 103.21875 39.476563 L 103.144531 39.351563 L 102.738281 38.734375 L 102.3125 38.132813 L 101.871094 37.542969 L 101.40625 36.96875 L 100.929688 36.410156 L 100.433594 35.867188 L 99.917969 35.339844 L 99.390625 34.832031 L 98.84375 34.339844 L 98.28125 33.859375 L 97.703125 33.402344 L 97.113281 32.964844 L 96.507813 32.539063 L 95.886719 32.136719 L 95.253906 31.757813 L 94.609375 31.394531 L 93.949219 31.050781 L 93.28125 30.726563 L 92.597656 30.425781 L 91.902344 30.148438 L 91.199219 29.890625 L 90.484375 29.65625 L 89.757813 29.445313 L 89.023438 29.257813 L 88.28125 29.089844 L 87.527344 28.949219 L 86.765625 28.839844 L 85.996094 28.742188 L 85.21875 28.679688 L 84.4375 28.640625 L 83.648438 28.628906 L 82.457031 28.65625 L 81.285156 28.746094 L 80.132813 28.890625 L 78.992188 29.097656 L 77.878906 29.355469 L 76.78125 29.664063 L 75.710938 30.027344 L 74.664063 30.441406 L 73.640625 30.90625 L 72.648438 31.414063 L 71.679688 31.96875 L 70.742188 32.570313 L 69.835938 33.214844 L 68.964844 33.898438 L 68.128906 34.628906 L 67.324219 35.390625 L 66.5625 36.191406 L 65.835938 37.03125 L 65.148438 37.902344 L 64.507813 38.808594 L 63.90625 39.742188 L 63.351563 40.714844 L 62.839844 41.707031 L 62.378906 42.726563 L 61.964844 43.777344 L 61.601563 44.847656 L 61.289063 45.941406 L 61.03125 47.058594 L 60.828125 48.195313 L 60.683594 49.351563 L 60.59375 50.523438 L 60.5625 51.714844 L 60.59375 52.898438 L 60.683594 54.070313 L 60.828125 55.226563 L 61.03125 56.363281 L 61.289063 57.480469 L 61.601563 58.578125 L 61.964844 59.648438 L 62.378906 60.695313 L 62.839844 61.71875 L 63.351563 62.714844 L 63.90625 63.679688 L 64.507813 64.617188 L 65.148438 65.519531 L 65.835938 66.390625 L 66.558594 67.230469 L 67.324219 68.03125 L 68.125 68.796875 L 68.964844 69.523438 L 69.835938 70.207031 L 70.742188 70.851563 L 71.679688 71.457031 L 72.644531 72.007813 L 73.640625 72.519531 L 74.660156 72.980469 L 75.710938 73.394531 L 76.78125 73.757813 L 77.878906 74.066406 L 78.992188 74.324219 L 80.128906 74.527344 L 81.285156 74.675781 L 82.457031 74.765625 L 83.648438 74.796875 L 84.0625 74.792969 L 84.480469 74.78125 L 84.894531 74.761719 L 85.714844 74.707031 L 86.125 74.667969 L 86.53125 74.617188 L 86.933594 74.5625 L 87.335938 74.5 L 87.734375 74.433594 L 88.132813 74.355469 L 88.527344 74.277344 L 88.917969 74.1875 L 89.304688 74.09375 L 89.695313 73.992188 L 90.078125 73.882813 L 90.460938 73.769531 L 90.835938 73.652344 L 91.214844 73.523438 L 91.585938 73.390625 L 91.957031 73.25 L 92.324219 73.105469 L 92.683594 72.957031 L 93.046875 72.796875 L 93.402344 72.632813 L 93.757813 72.464844 L 94.109375 72.292969 L 94.457031 72.109375 L 94.800781 71.921875 L 95.136719 71.730469 L 95.476563 71.53125 L 95.90625 71.269531 L 101.890625 71.269531 L 100.617188 72.34375 L 100.164063 72.707031 L 99.707031 73.058594 L 99.238281 73.402344 L 98.765625 73.738281 L 98.285156 74.0625 L 97.796875 74.375 L 97.300781 74.675781 L 96.796875 74.96875 L 96.285156 75.25 L 95.769531 75.523438 L 95.246094 75.78125 L 94.71875 76.03125 L 94.183594 76.269531 L 93.640625 76.5 L 93.09375 76.707031 L 92.539063 76.914063 L 91.980469 77.101563 L 91.414063 77.28125 L 90.84375 77.445313 L 90.269531 77.601563 L 89.6875 77.742188 L 89.105469 77.875 L 88.515625 77.984375 L 87.921875 78.089844 L 87.320313 78.175781 L 86.71875 78.253906 L 86.113281 78.316406 L 85.5 78.363281 L 84.886719 78.402344 L 84.265625 78.421875 L 83.644531 78.429688 L 82.273438 78.394531 L 80.914063 78.289063 L 79.578125 78.125 L 78.261719 77.886719 L 76.96875 77.585938 L 75.699219 77.226563 L 74.460938 76.804688 L 73.246094 76.332031 L 72.0625 75.792969 L 70.910156 75.207031 L 69.792969 74.558594 L 68.707031 73.867188 L 67.660156 73.125 L 66.652344 72.324219 L 65.679688 71.488281 L 64.753906 70.601563 L 63.867188 69.675781 L 63.03125 68.707031 L 62.234375 67.695313 L 61.492188 66.648438 L 60.796875 65.5625 L 60.152344 64.445313 L 59.5625 63.292969 L 59.027344 62.109375 L 58.546875 60.894531 L 58.128906 59.65625 L 57.765625 58.386719 L 57.46875 57.09375 L 57.234375 55.777344 L 57.066406 54.441406 L 56.960938 53.089844 L 56.925781 51.714844 L 56.960938 50.339844 L 57.066406 48.976563 L 57.234375 47.640625 L 57.46875 46.324219 L 57.765625 45.03125 L 58.128906 43.765625 L 58.546875 42.523438 L 59.027344 41.308594 L 59.5625 40.128906 L 60.152344 38.972656 L 60.796875 37.855469 L 61.492188 36.769531 L 62.234375 35.722656 L 63.03125 34.714844 L 63.867188 33.742188 L 64.753906 32.816406 L 65.679688 31.929688 L 66.652344 31.09375 L 67.660156 30.296875 L 68.707031 29.554688 L 69.792969 28.859375 L 70.910156 28.214844 L 72.0625 27.628906 L 73.246094 27.089844 L 74.460938 26.609375 L 75.699219 26.191406 L 76.96875 25.832031 L 78.261719 25.53125 L 79.578125 25.296875 L 80.914063 25.128906 L 82.273438 25.023438 Z M 235.90625 44.523438 C 235.078125 44.183594 234.265625 43.933594 233.46875 43.761719 C 232.671875 43.59375 231.921875 43.511719 231.21875 43.511719 C 230.023438 43.511719 228.957031 43.753906 228.023438 44.246094 C 227.089844 44.738281 226.296875 45.394531 225.65625 46.222656 C 225.011719 47.046875 224.523438 47.988281 224.1875 49.050781 C 223.847656 50.105469 223.679688 51.1875 223.679688 52.289063 C 223.679688 53.332031 223.824219 54.378906 224.117188 55.410156 C 224.40625 56.457031 224.867188 57.398438 225.492188 58.242188 C 226.125 59.089844 226.9375 59.765625 227.929688 60.285156 C 228.925781 60.804688 230.113281 61.066406 231.492188 61.066406 C 232.226563 61.066406 233.015625 60.957031 233.859375 60.722656 C 234.703125 60.492188 235.460938 60.164063 236.132813 59.734375 L 236.457031 63.59375 C 235.566406 64.023438 234.640625 64.289063 233.675781 64.398438 C 232.707031 64.507813 231.832031 64.558594 231.03125 64.558594 C 229.257813 64.558594 227.640625 64.238281 226.183594 63.59375 C 224.726563 62.957031 223.472656 62.070313 222.417969 60.957031 C 221.359375 59.835938 220.539063 58.53125 219.957031 57.046875 C 219.375 55.558594 219.085938 53.972656 219.085938 52.289063 C 219.085938 50.511719 219.367188 48.871094 219.933594 47.371094 C 220.503906 45.871094 221.3125 44.574219 222.371094 43.488281 C 223.425781 42.398438 224.683594 41.550781 226.136719 40.9375 C 227.59375 40.324219 229.226563 40.015625 231.03125 40.015625 C 231.921875 40.015625 232.863281 40.109375 233.859375 40.292969 C 234.855469 40.476563 235.660156 40.691406 236.273438 40.9375 Z M 229.011719 65.527344 L 232.734375 65.527344 L 230.261719 70.566406 L 227.273438 70.566406 Z M 253.875 44.0625 L 247.671875 44.0625 L 247.671875 56.886719 C 247.671875 58.265625 248.03125 59.304688 248.75 60.007813 C 249.46875 60.714844 250.316406 61.066406 251.300781 61.066406 C 251.972656 61.066406 252.546875 60.984375 253.023438 60.816406 C 253.496094 60.644531 253.90625 60.460938 254.242188 60.238281 L 254.242188 63.914063 C 253.75 64.070313 253.191406 64.214844 252.5625 64.351563 C 251.9375 64.492188 251.269531 64.558594 250.566406 64.558594 C 248.328125 64.558594 246.566406 64.015625 245.28125 62.929688 C 243.992188 61.839844 243.347656 60.113281 243.347656 57.757813 L 243.347656 44.0625 L 238.0625 44.0625 L 238.0625 40.570313 L 243.347656 40.570313 L 243.347656 35.144531 L 247.671875 33.765625 L 247.671875 40.570313 L 253.875 40.570313 Z M 192.21875 47.371094 C 192.785156 45.871094 193.597656 44.582031 194.65625 43.488281 C 195.710938 42.398438 196.96875 41.550781 198.425781 40.9375 C 199.878906 40.324219 201.511719 40.015625 203.316406 40.015625 C 205.09375 40.015625 206.71875 40.324219 208.191406 40.9375 C 209.660156 41.550781 210.917969 42.402344 211.957031 43.488281 C 213.003906 44.582031 213.804688 45.871094 214.375 47.371094 C 214.941406 48.871094 215.222656 50.511719 215.222656 52.289063 C 215.222656 53.972656 214.933594 55.558594 214.351563 57.046875 C 213.769531 58.53125 212.953125 59.835938 211.914063 60.957031 C 210.871094 62.070313 209.613281 62.957031 208.144531 63.59375 C 206.675781 64.238281 205.066406 64.558594 203.316406 64.558594 C 201.542969 64.558594 199.925781 64.238281 198.472656 63.59375 C 197.015625 62.957031 195.761719 62.070313 194.703125 60.957031 C 193.644531 59.835938 192.824219 58.53125 192.242188 57.046875 C 191.660156 55.558594 191.371094 53.972656 191.371094 52.289063 C 191.367188 50.511719 191.652344 48.871094 192.21875 47.371094 Z M 196.402344 55.414063 C 196.691406 56.457031 197.136719 57.398438 197.734375 58.242188 C 198.332031 59.089844 199.089844 59.765625 200.007813 60.285156 C 200.925781 60.804688 202.03125 61.066406 203.316406 61.066406 C 204.574219 61.066406 205.664063 60.804688 206.582031 60.285156 C 207.5 59.765625 208.257813 59.089844 208.855469 58.242188 C 209.457031 57.398438 209.898438 56.457031 210.191406 55.414063 C 210.480469 54.371094 210.628906 53.335938 210.628906 52.289063 C 210.628906 51.1875 210.457031 50.105469 210.121094 49.050781 C 209.78125 47.988281 209.308594 47.050781 208.695313 46.222656 C 208.082031 45.394531 207.316406 44.738281 206.398438 44.246094 C 205.480469 43.757813 204.453125 43.511719 203.320313 43.511719 C 202.15625 43.511719 201.121094 43.757813 200.21875 44.246094 C 199.3125 44.738281 198.546875 45.394531 197.917969 46.222656 C 197.289063 47.050781 196.808594 47.988281 196.46875 49.050781 C 196.132813 50.105469 195.964844 51.1875 195.964844 52.289063 C 195.964844 53.335938 196.113281 54.371094 196.402344 55.414063 Z M 164.851563 40.570313 L 168.988281 40.570313 L 168.988281 43.878906 L 169.082031 43.878906 C 169.355469 43.449219 169.730469 43.003906 170.207031 42.546875 C 170.683594 42.089844 171.253906 41.671875 171.929688 41.304688 C 172.605469 40.9375 173.363281 40.628906 174.207031 40.382813 C 175.046875 40.140625 175.988281 40.015625 177.03125 40.015625 C 178.714844 40.015625 180.195313 40.339844 181.46875 40.980469 C 182.734375 41.628906 183.796875 42.492188 184.636719 43.585938 C 185.480469 44.667969 186.109375 45.933594 186.519531 47.371094 C 186.9375 48.8125 187.144531 50.3125 187.144531 51.878906 C 187.144531 53.503906 186.953125 55.070313 186.566406 56.589844 C 186.1875 58.105469 185.585938 59.457031 184.777344 60.632813 C 183.960938 61.8125 182.921875 62.761719 181.648438 63.480469 C 180.378906 64.203125 178.855469 64.558594 177.078125 64.558594 C 174.996094 64.558594 173.339844 64.203125 172.113281 63.480469 C 170.886719 62.761719 169.9375 61.863281 169.261719 60.792969 L 169.171875 60.792969 L 169.171875 73.664063 L 164.851563 73.664063 Z M 182.246094 49.074219 C 182.015625 48.03125 181.640625 47.09375 181.117188 46.269531 C 180.601563 45.441406 179.925781 44.773438 179.101563 44.269531 C 178.273438 43.761719 177.273438 43.511719 176.113281 43.511719 C 174.945313 43.511719 173.929688 43.761719 173.058594 44.269531 C 172.179688 44.773438 171.453125 45.441406 170.875 46.269531 C 170.289063 47.09375 169.863281 48.039063 169.585938 49.09375 C 169.308594 50.152344 169.171875 51.234375 169.171875 52.339844 C 169.171875 53.316406 169.300781 54.320313 169.5625 55.34375 C 169.820313 56.371094 170.230469 57.316406 170.78125 58.171875 C 171.332031 59.03125 172.042969 59.726563 172.917969 60.261719 C 173.789063 60.796875 174.84375 61.066406 176.066406 61.066406 C 177.230469 61.066406 178.226563 60.777344 179.050781 60.195313 C 179.878906 59.613281 180.554688 58.882813 181.074219 58.011719 C 181.59375 57.136719 181.976563 56.179688 182.222656 55.136719 C 182.46875 54.097656 182.574219 53.113281 182.542969 52.195313 C 182.578125 51.15625 182.480469 50.113281 182.246094 49.074219 Z M 146.972656 40.570313 L 151.019531 40.570313 L 151.019531 44.199219 L 151.109375 44.199219 C 151.691406 42.976563 152.542969 41.96875 153.660156 41.1875 C 154.777344 40.40625 155.964844 40.015625 157.222656 40.015625 C 157.867188 40.015625 158.386719 40.046875 158.785156 40.109375 C 159.183594 40.171875 159.613281 40.246094 160.074219 40.339844 L 160.074219 44.199219 C 159.671875 44.046875 159.265625 43.9375 158.855469 43.878906 C 158.441406 43.816406 158.050781 43.785156 157.683594 43.785156 C 155.75 43.785156 154.207031 44.640625 153.042969 46.359375 C 151.875 48.082031 151.292969 50.40625 151.292969 53.34375 L 151.292969 64.007813 L 146.972656 64.007813 Z M 121.648438 41.535156 C 122.078125 41.378906 122.523438 41.21875 122.980469 41.050781 C 123.441406 40.882813 123.957031 40.71875 124.519531 40.570313 C 125.089844 40.414063 125.75 40.285156 126.496094 40.175781 C 127.25 40.070313 128.101563 40.015625 129.046875 40.015625 C 131.132813 40.015625 132.933594 40.324219 134.449219 40.9375 C 135.964844 41.546875 137.222656 42.40625 138.21875 43.511719 C 139.214844 44.613281 139.953125 45.945313 140.445313 47.511719 C 140.9375 49.074219 141.179688 50.804688 141.179688 52.707031 C 141.179688 54.453125 140.921875 56.042969 140.402344 57.484375 C 139.878906 58.921875 139.136719 60.171875 138.171875 61.230469 C 137.207031 62.285156 136.050781 63.105469 134.699219 63.6875 C 133.351563 64.269531 131.851563 64.5625 130.195313 64.5625 C 128.234375 64.5625 126.597656 64.222656 125.277344 63.550781 C 123.960938 62.878906 122.90625 61.945313 122.105469 60.769531 C 121.3125 59.589844 120.734375 58.1875 120.382813 56.5625 C 120.03125 54.9375 119.855469 53.195313 119.855469 51.324219 L 136.585938 51.332031 C 136.585938 50.160156 136.378906 49.105469 135.964844 48.15625 C 135.550781 47.207031 134.984375 46.386719 134.265625 45.695313 C 133.542969 45.007813 132.71875 44.46875 131.78125 44.089844 C 130.847656 43.707031 129.875 43.511719 128.863281 43.511719 C 128.160156 43.511719 127.429688 43.597656 126.683594 43.761719 C 125.929688 43.933594 125.226563 44.132813 124.566406 44.363281 C 123.910156 44.589844 123.324219 44.847656 122.820313 45.117188 C 122.3125 45.394531 121.925781 45.640625 121.648438 45.855469 Z M 124.453125 54.539063 C 124.453125 55.429688 124.582031 56.273438 124.84375 57.066406 C 125.105469 57.867188 125.480469 58.5625 125.96875 59.160156 C 126.460938 59.757813 127.074219 60.222656 127.808594 60.5625 C 128.542969 60.898438 129.371094 61.066406 130.289063 61.066406 C 131.363281 61.066406 132.273438 60.867188 133.023438 60.46875 C 133.777344 60.070313 134.40625 59.558594 134.910156 58.929688 C 135.417969 58.300781 135.800781 57.605469 136.058594 56.839844 C 136.320313 56.070313 136.496094 55.304688 136.585938 54.539063 Z M 96.738281 60.238281 L 110.25 44.0625 L 97.382813 44.0625 L 97.382813 40.570313 L 115.261719 40.570313 L 115.261719 44.339844 L 101.75 60.515625 L 115.765625 60.515625 L 115.765625 64.007813 L 96.738281 64.007813 Z M 106.546875 65.203125 C 104.332031 67.734375 101.0625 69.492188 97.464844 69.492188 C 91.546875 69.492188 87.273438 66.328125 87.273438 60.976563 L 87.179688 60.976563 C 86.933594 61.34375 86.597656 61.734375 86.167969 62.148438 C 85.738281 62.558594 85.226563 62.945313 84.628906 63.296875 C 84.03125 63.648438 83.339844 63.953125 82.5625 64.191406 C 81.777344 64.4375 80.898438 64.558594 79.917969 64.558594 C 78.660156 64.558594 77.503906 64.421875 76.449219 64.144531 C 75.390625 63.871094 74.480469 63.433594 73.714844 62.839844 C 72.945313 62.238281 72.359375 61.476563 71.945313 60.5625 C 71.53125 59.640625 71.324219 58.539063 71.324219 57.253906 C 71.324219 55.78125 71.683594 54.558594 72.402344 53.578125 C 73.125 52.59375 74.019531 51.804688 75.09375 51.210938 C 76.164063 50.609375 77.34375 50.183594 78.628906 49.921875 C 79.917969 49.660156 81.113281 49.53125 82.214844 49.53125 L 84.515625 49.53125 C 85.1875 49.53125 85.953125 49.5625 86.8125 49.628906 C 86.8125 47.601563 86.390625 46.082031 85.546875 45.050781 C 84.703125 44.023438 83.195313 43.511719 81.019531 43.511719 C 79.792969 43.511719 78.574219 43.71875 77.367188 44.128906 C 76.15625 44.542969 75.105469 45.101563 74.21875 45.808594 L 73.988281 42.191406 C 75.058594 41.554688 76.242188 41.035156 77.527344 40.628906 C 78.816406 40.222656 80.207031 40.015625 81.710938 40.015625 C 85.078125 40.015625 87.492188 40.835938 88.949219 42.457031 C 90.402344 44.082031 91.132813 46.503906 91.132813 49.714844 L 91.132813 59.410156 C 91.132813 66.039063 97.054688 67.90625 102.03125 65.203125 L 106.546875 65.207031 Z M 86.8125 52.839844 C 86.351563 52.839844 85.890625 52.828125 85.433594 52.792969 C 84.972656 52.761719 84.511719 52.753906 84.054688 52.753906 C 83.472656 52.753906 82.722656 52.789063 81.800781 52.863281 C 80.882813 52.941406 79.984375 53.132813 79.113281 53.441406 C 78.238281 53.742188 77.488281 54.203125 76.859375 54.796875 C 76.230469 55.390625 75.917969 56.214844 75.917969 57.253906 C 75.917969 57.867188 76.058594 58.410156 76.332031 58.882813 C 76.609375 59.359375 76.953125 59.761719 77.367188 60.085938 C 77.78125 60.402344 78.246094 60.648438 78.769531 60.816406 C 79.289063 60.984375 79.792969 61.066406 80.285156 61.066406 C 82.429688 61.066406 84.054688 60.480469 85.15625 59.300781 C 86.261719 58.117188 86.8125 56.65625 86.8125 54.910156 Z M 86.8125 52.839844 "/>
</g>
<path style=" stroke:none;fill-rule:evenodd;fill:rgb(100%,100%,0%);fill-opacity:1;" d="M 36.226563 41.171875 C 35.644531 37.046875 35.058594 32.921875 34.472656 28.789063 C 34.191406 26.996094 35.894531 25.257813 38.292969 25.140625 C 46.511719 24.640625 54.890625 26.050781 62.75 29.429688 C 56.527344 31.289063 45.113281 35.667969 36.226563 41.171875 Z M 36.226563 41.171875 "/>
<path style=" stroke:none;fill-rule:evenodd;fill:rgb(4.315186%,26.660156%,59.959412%);fill-opacity:1;" d="M 0.0351563 3.839844 L 2.941406 9.550781 C 9.140625 8.257813 15.613281 7.800781 22.242188 8.296875 C 23.507813 8.386719 24.765625 8.519531 26.015625 8.683594 C 18.3125 8.292969 10.828125 9.183594 3.769531 11.175781 L 4.863281 13.320313 C 11.769531 11.621094 19.0625 10.964844 26.539063 11.519531 C 27.808594 11.613281 29.066406 11.746094 30.316406 11.90625 C 21.769531 11.472656 13.488281 12.621094 5.765625 15.09375 L 6.824219 17.167969 C 14.417969 15.011719 22.511719 14.128906 30.839844 14.746094 C 32.109375 14.839844 33.367188 14.972656 34.617188 15.132813 C 25.226563 14.660156 16.160156 16.089844 7.804688 19.089844 L 8.820313 21.089844 C 17.074219 18.433594 25.964844 17.289063 35.140625 17.972656 C 36.410156 18.066406 37.667969 18.199219 38.914063 18.359375 C 28.6875 17.84375 18.84375 19.589844 9.875 23.160156 L 10.847656 25.066406 C 12.476563 28.132813 16.222656 29.152344 19.390625 27.796875 C 30.605469 23.144531 43.109375 22.40625 54.875 25.6875 C 52.992188 20.921875 47.847656 14.234375 38.144531 8.925781 C 28.660156 3.738281 14.613281 -0.0742188 0.0351563 3.839844 Z M 0.0351563 3.839844 "/>
</g>
</svg>
