<?xml version="1.0" standalone="no"?>
<!DOCTYPE svg PUBLIC "-//W3C//DTD SVG 1.0//EN" "http://www.w3.org/TR/2001/REC-SVG-20010904/DTD/svg10.dtd">
<svg xmlns="http://www.w3.org/2000/svg" xmlns:xlink="http://www.w3.org/1999/xlink" id="body_1" width="75" height="150">

<defs>
                <clipPath  id="1">

                    <path clip-rule="evenodd" d="" />                </clipPath>
</defs>

<g transform="matrix(0.125 0 0 0.125 -0 18.75)">
	<g transform="matrix(1.3333333 0 -0 -1.3333333 0 1122.5197)">
		<g>
			<g clip-path="url(#1)" >
                <path d="M354.3619 491.845L354.388 482.3546L446.2483 482.3546L446.2483 625.5763L148.1573 625.5763L148.1573 523.3365L159.3734 523.3365L159.3734 616.94836L436.2015 616.94836L436.2015 491.845L354.3619 491.845z" stroke="#FFFFFF" stroke-width="0.5" fill="#FFFFFF" fill-rule="nonzero" />
                <path d="M160.8908 482.6186L160.8908 506.8094L171.1789 506.8094C 173.7632 506.8094 175.64429 506.5897 176.8156 506.15628C 177.9922 505.7226 178.9271 504.9513 179.63089 503.84177C 180.3348 502.72696 180.6897 501.45987 180.6897 500.02975C 180.6897 498.21075 180.1602 496.71295 179.096 495.53036C 178.03159 494.34796 176.4437 493.60446 174.32649 493.29495C 175.37949 492.68124 176.2466 492.00546 176.92809 491.26785C 177.61488 490.52994 178.53848 489.21814 179.69838 487.33734L179.69838 487.33734L182.64899 482.61853L176.80959 482.61853L173.30739 487.90024C 172.05139 489.77545 171.1899 490.95804 170.72249 491.44785C 170.26099 491.93225 169.77089 492.27014 169.25299 492.45013C 168.72919 492.63043 167.90709 492.72064 166.78088 492.72064L166.78088 492.72064L165.78958 492.72064L165.78958 482.61853L160.8908 482.6186zM165.7896 496.5724L169.40489 496.5724C 171.7475 496.5724 173.20589 496.67358 173.7916 496.87057C 174.37149 497.06787 174.8333 497.41138 175.15979 497.89557C 175.4921 498.37967 175.65529 498.98776 175.65529 499.71426C 175.65529 500.53098 175.43568 501.18405 175.00218 501.69086C 174.56848 502.19205 173.95479 502.50726 173.16649 502.63675C 172.76659 502.69315 171.57858 502.72125 169.60199 502.72125L169.60199 502.72125L165.7896 502.72125zM200.7643 491.538L205.4942 490.0853C 204.768 487.4219 203.5573 485.44528 201.8679 484.1501C 200.17871 482.8606 198.0388 482.2132 195.4429 482.2132C 192.22751 482.2132 189.5865 483.3111 187.5144 485.5073C 185.4479 487.7033 184.4116 490.70468 184.4116 494.517C 184.4116 498.543 185.45331 501.6739 187.5314 503.9039C 189.6092 506.1339 192.34601 507.2488 195.7357 507.2488C 198.6976 507.2488 201.102 506.3703 202.949 504.6191C 204.05281 503.583 204.87491 502.0963 205.4268 500.15372L205.4268 500.15372L200.5954 499.00482C 200.308 500.2549 199.7113 501.2459 198.8045 501.9724C 197.89261 502.6989 196.7888 503.0592 195.4936 503.0592C 193.69731 503.0592 192.2389 502.4171 191.12401 501.12772C 190.0032 499.8438 189.4459 497.7604 189.4459 494.87732C 189.4459 491.82523 189.9978 489.6462 191.0957 488.35083C 192.19951 487.05023 193.6295 486.40253 195.3921 486.40253C 196.6929 486.40253 197.8135 486.81354 198.7483 487.64154C 199.6829 488.46933 200.3587 489.76443 200.76431 491.53806zM230.3271 491.5043L230.3271 495.5924L240.8346 495.5924L240.8346 485.9408C 239.8156 484.9441 238.33449 484.0713 236.39189 483.3111C 234.4547 482.5565 232.48969 482.1792 230.4961 482.1792C 227.9679 482.1792 225.76619 482.7087 223.88539 483.7728C 222.01028 484.8372 220.5967 486.3631 219.6507 488.3397C 218.70479 490.31598 218.23169 492.4729 218.23169 494.7985C 218.23169 497.3213 218.7609 499.56238 219.814 501.5276C 220.8728 503.48718 222.4157 504.9964 224.4484 506.0438C 226.0026 506.8488 227.9285 507.24878 230.237 507.24878C 233.2386 507.24878 235.5866 506.61807 237.276 505.3567C 238.9595 504.0896 240.0463 502.3497 240.5307 500.1197L240.5307 500.1197L235.6654 499.2075C 235.3275 500.3957 234.6857 501.336 233.74521 502.02878C 232.81061 502.71558 231.63931 503.05917 230.23161 503.05917C 228.10312 503.05917 226.40802 502.38336 225.1522 501.02646C 223.8965 499.66916 223.26581 497.65884 223.26581 494.99545C 223.26581 492.11795 223.90211 489.96136 225.17491 488.52536C 226.45302 487.08957 228.11981 486.36877 230.18631 486.36877C 231.20561 486.36877 232.2306 486.57147 233.25531 486.97137C 234.28601 487.37106 235.16422 487.86087 235.90201 488.4355L235.90201 488.4355L235.90201 491.50427zM245.3564 482.6186L245.3564 506.8094L255.6445 506.8094C 258.2289 506.8094 260.1099 506.5897 261.2812 506.15628C 262.4579 505.7226 263.3927 504.9513 264.0966 503.84177C 264.80038 502.72696 265.15527 501.45987 265.15527 500.02975C 265.15527 498.21075 264.62576 496.71295 263.56168 495.53036C 262.49728 494.34796 260.90927 493.60446 258.79208 493.29495C 259.84518 492.68124 260.71228 492.00546 261.39368 491.26785C 262.08057 490.52994 263.0041 489.21814 264.16428 487.33734L264.16428 487.33734L267.11487 482.61853L261.27548 482.61853L257.77298 487.90024C 256.51727 489.77545 255.65558 490.95804 255.18839 491.44785C 254.72658 491.93225 254.23648 492.27014 253.71858 492.45013C 253.19478 492.63043 252.37279 492.72064 251.24658 492.72064L251.24658 492.72064L250.25558 492.72064L250.25558 482.61853zM250.2556 496.5724L253.8706 496.5724C 256.2131 496.5724 257.6716 496.67358 258.2572 496.87057C 258.8372 497.06787 259.2989 497.41138 259.6255 497.89557C 259.9577 498.37967 260.121 498.98776 260.121 499.71426C 260.121 500.53098 259.9013 501.18405 259.4679 501.69086C 259.0342 502.19205 258.4205 502.50726 257.6322 502.63675C 257.2322 502.69315 256.0442 502.72125 254.0676 502.72125L254.0676 502.72125L250.2556 502.72125zM268.7423 494.5677C 268.7423 497.03387 269.11392 499.1063 269.8515 500.7841C 270.3977 502.0174 271.1523 503.1269 272.1039 504.1066C 273.0555 505.0865 274.0975 505.8128 275.22913 506.2915C 276.73822 506.9276 278.47812 507.2488 280.44913 507.2488C 284.01932 507.2488 286.86844 506.1393 289.01404 503.9263C 291.15384 501.7079 292.22363 498.6275 292.22363 494.6803C 292.22363 490.7667 291.15955 487.7033 289.03635 485.496C 286.91385 483.283 284.07004 482.1792 280.51685 482.1792C 276.91855 482.1792 274.05215 483.2773 271.92953 485.479C 269.80643 487.6753 268.74234 490.7047 268.74234 494.56772zM273.7763 494.731C 273.7763 491.9885 274.41272 489.91068 275.6798 488.4917C 276.94662 487.0783 278.55722 486.3688 280.50552 486.3688C 282.4594 486.3688 284.05872 487.0726 285.3145 488.4749C 286.5645 489.88263 287.1896 491.98853 287.1896 494.79852C 287.1896 497.57474 286.5815 499.64682 285.3595 501.00943C 284.1432 502.37772 282.5271 503.05923 280.5055 503.05923C 278.4895 503.05923 276.8621 502.36642 275.629 500.98712C 274.3957 499.6018 273.7763 497.5183 273.7763 494.73102zM296.03592 506.8094L300.9348 506.8094L300.9348 493.7006C 300.9348 491.61688 300.99692 490.27118 301.1151 489.6573C 301.32343 488.6663 301.8132 487.86658 302.5905 487.2696C 303.3731 486.6673 304.4375 486.3688 305.78882 486.3688C 307.1571 486.3688 308.1932 486.6503 308.89163 487.2192C 309.58984 487.7878 310.00653 488.48032 310.14743 489.308C 310.28802 490.13602 310.36115 491.5043 310.36115 493.41882L310.36115 493.41882L310.36115 506.80942L315.26025 506.80942L315.26025 494.08893C 315.26025 491.18314 315.13077 489.12802 314.86624 487.92874C 314.60144 486.72916 314.11734 485.71573 313.40753 484.88803C 312.70374 484.06033 311.75772 483.40692 310.57513 482.91702C 309.38715 482.42722 307.84424 482.17923 305.93512 482.17923C 303.63223 482.17923 301.88663 482.44394 300.69843 482.97882C 299.51044 483.514 298.56982 484.2065 297.87732 485.06232C 297.1845 485.91843 296.73413 486.80792 296.5144 487.7484C 296.1935 489.13373 296.03592 491.1831 296.03592 493.8919zM320.43512 482.6186L320.43512 506.8094L328.26813 506.8094C 331.23572 506.8094 333.16702 506.6912 334.0681 506.4491C 335.45312 506.0832 336.613 505.2949 337.5479 504.0785C 338.48282 502.86218 338.95023 501.2909 338.95023 499.3654C 338.95023 497.8786 338.67984 496.6342 338.14493 495.62048C 337.60434 494.6071 336.92294 493.81308 336.09512 493.23288C 335.26743 492.65857 334.42273 492.27557 333.56662 492.08997C 332.4013 491.85886 330.71753 491.74066 328.51022 491.74066L328.51022 491.74066L325.33432 491.74066L325.33432 482.61856zM325.33432 502.72128L325.33432 495.8289L327.9977 495.8289C 329.9179 495.8289 331.196 495.95837 331.84372 496.2118C 332.4912 496.46518 332.99802 496.8595 333.364 497.4055C 333.73022 497.9463 333.91592 498.57138 333.91592 499.2919C 333.91592 500.1761 333.65683 500.9026 333.14462 501.4769C 332.62643 502.0512 331.97903 502.4117 331.18503 502.55798C 330.60504 502.6652 329.43942 502.72128 327.68253 502.72128z" stroke="none" fill="#FFFFFF" fill-rule="nonzero" />
                <path d="M149.0026 455.6982L149.0026 471.742L155.8259 471.742C 157.54 471.742 158.78749 471.5963 159.5642 471.3089C 160.34459 471.0214 160.9645 470.5095 161.4314 469.7739C 161.8982 469.0346 162.1335 468.19418 162.1335 467.2457C 162.1335 466.0393 161.7826 465.046 161.0768 464.2617C 160.37059 463.4773 159.3176 462.98438 157.9133 462.77908C 158.6117 462.37207 159.1869 461.9239 159.6387 461.4347C 160.0946 460.9454 160.7068 460.0752 161.4762 458.82788L161.4762 458.82788L163.4332 455.69818L159.5605 455.69818L157.2375 459.2013C 156.40471 460.4451 155.8332 461.2292 155.5234 461.554C 155.21701 461.87518 154.8921 462.0994 154.54861 462.219C 154.20131 462.33838 153.65591 462.3982 152.90901 462.3982L152.90901 462.3982L152.2519 462.3982L152.2519 455.69818L149.0026 455.6982zM152.25189 464.9525L154.64949 464.9525C 156.2031 464.9525 157.17029 465.01993 157.55869 465.1506C 157.94328 465.2813 158.24948 465.5089 158.46628 465.8301C 158.68658 466.15152 158.79488 466.5546 158.79488 467.0365C 158.79488 467.5779 158.64917 468.0113 158.36168 468.3472C 158.07397 468.6797 157.66698 468.8889 157.14427 468.9748C 156.87888 469.012 156.09087 469.0307 154.78017 469.0307L154.78017 469.0307L152.25186 469.0307zM165.18439 455.6982L165.18439 471.742L177.06049 471.742L177.06049 469.0307L168.43379 469.0307L168.43379 465.4678L176.4556 465.4678L176.4556 462.7568L168.43379 462.7568L168.43379 458.40952L177.3743 458.40952L177.3743 455.6982zM180.21999 455.6982L180.21999 471.60773L183.46898 471.60773L183.46898 458.40952L191.51347 458.40952L191.51347 455.6982zM193.70549 455.6982L193.70549 471.742L196.95459 471.742L196.95459 455.6982zM214.4959 455.6982L210.9966 455.6982L209.611 459.35092L203.1763 459.35092L201.8432 455.6982L198.4073 455.6982L204.63681 471.742L208.06891 471.742zM208.55789 462.062L206.32849 468L204.16249 462.062zM216.2251 471.742L222.64099 471.742C 223.9146 471.742 224.85939 471.6899 225.48299 471.5853C 226.11058 471.477 226.66708 471.25668 227.15999 470.9242C 227.6529 470.58798 228.06369 470.1438 228.39218 469.5871C 228.72098 469.0307 228.88518 468.4034 228.88518 467.7126C 228.88518 466.96558 228.68358 466.2746 228.28027 465.65088C 227.87688 465.0236 227.32808 464.5568 226.63698 464.24298C 227.61177 463.95547 228.35878 463.46997 228.88518 462.78278C 229.40817 462.09567 229.66948 461.28897 229.66948 460.35916C 229.66948 459.62695 229.50137 458.91745 229.16148 458.22665C 228.82169 457.53555 228.35878 456.98306 227.76859 456.56836C 227.18239 456.15765 226.45789 455.90366 225.59529 455.80676C 225.0573 455.75055 223.75389 455.71317 221.68889 455.69815L221.68889 455.69815L216.22508 455.69815zM219.47409 469.0755L219.47409 465.3782L221.59529 465.3782C 222.8539 465.3782 223.63818 465.3969 223.9444 465.43442C 224.4971 465.49792 224.9342 465.68832 225.2514 466.00583C 225.56891 466.32333 225.726 466.73773 225.726 467.25314C 225.726 467.74976 225.5876 468.14944 225.3149 468.45953C 225.0425 468.76935 224.6355 468.95615 224.0977 469.01962C 223.7763 469.05704 222.8539 469.07553 221.334 469.07553zM219.47409 462.712L219.47409 458.40952L222.4769 458.40952C 223.64189 458.40952 224.3852 458.44333 224.6987 458.5068C 225.1806 458.5963 225.5729 458.8092 225.8753 459.1491C 226.17781 459.4927 226.3309 459.94452 226.3309 460.51602C 226.3309 461.00153 226.2152 461.40833 225.9797 461.7445C 225.7483 462.08072 225.40851 462.3273 224.96771 462.4804C 224.52692 462.63342 223.56741 462.712 222.09221 462.712zM232.49649 455.6982L232.49649 471.60773L235.74559 471.60773L235.74559 458.40952L243.79 458.40952L243.79 455.6982zM246.094 455.6982L246.094 471.742L257.97 471.742L257.97 469.0307L249.34311 469.0307L249.34311 465.4678L257.3651 465.4678L257.3651 462.7568L249.34311 462.7568L249.34311 458.40952L258.2838 458.40952L258.2838 455.6982zM277.5283 461.6138L280.6651 460.6503C 280.1835 458.8841 279.3807 457.573 278.2602 456.7141C 277.1399 455.85892 275.72058 455.4295 273.99908 455.4295C 271.86658 455.4295 270.11508 456.1577 268.74057 457.6141C 267.36996 459.07062 266.68286 461.0611 266.68286 463.5896C 266.68286 466.2598 267.37366 468.3362 268.75186 469.815C 270.12976 471.2939 271.94507 472.03342 274.19327 472.03342C 276.15765 472.03342 277.75217 471.45093 278.97726 470.2893C 279.70917 469.6021 280.25427 468.6163 280.62027 467.3279L280.62027 467.3279L277.41595 466.566C 277.22546 467.3951 276.82974 468.0524 276.22855 468.534C 275.62335 469.0159 274.89145 469.25488 274.03253 469.25488C 272.84113 469.25488 271.87393 468.82907 271.13434 467.97388C 270.39145 467.12238 270.02142 465.74048 270.02142 463.8285C 270.02142 461.8043 270.38742 460.3592 271.11594 459.5C 271.84784 458.6374 272.79633 458.208 273.96533 458.208C 274.82794 458.208 275.57114 458.4807 276.19104 459.0295C 276.81104 459.5786 277.25916 460.4374 277.52823 461.6138zM282.77518 463.623C 282.77518 465.25888 283.02148 466.6331 283.51108 467.74597C 283.8733 468.5641 284.37357 469.29968 285.00458 469.94937C 285.63586 470.59937 286.3267 471.08096 287.07727 471.39847C 288.07816 471.82047 289.23218 472.03336 290.53928 472.03336C 292.90707 472.03336 294.79688 471.29776 296.21957 469.82996C 297.6389 468.35855 298.3484 466.31564 298.3484 463.69785C 298.3484 461.10214 297.64258 459.07056 296.2346 457.60675C 294.8267 456.13895 292.9408 455.40704 290.5843 455.40704C 288.19788 455.40704 286.29688 456.13525 284.88898 457.59534C 283.481 459.05212 282.77518 461.06104 282.77518 463.62292zM286.11377 463.7313C 286.11377 461.9126 286.53586 460.5347 287.37607 459.5936C 288.21658 458.6562 289.28467 458.1856 290.57666 458.1856C 291.87265 458.1856 292.93307 458.6525 293.76596 459.5822C 294.59506 460.51602 295.00946 461.91263 295.00946 463.77612C 295.00946 465.61752 294.60605 466.99173 293.79596 467.89542C 292.98926 468.80283 291.91745 469.2549 290.57666 469.2549C 289.23987 469.2549 288.16037 468.7954 287.34256 467.8807C 286.52457 466.962 286.11377 465.5801 286.11377 463.7313zM300.87668 455.69818L300.87668 471.74197L304.0211 471.74197L310.6239 460.99017L310.6239 471.74197L313.6266 471.74197L313.6266 455.69818L310.3812 455.69818L303.8791 466.24478L303.8791 455.69818zM316.20697 460.89688L319.36646 461.2107C 319.55695 460.1537 319.93796 459.3807 320.51675 458.8841C 321.09555 458.3871 321.87625 458.1408 322.85846 458.1408C 323.89645 458.1408 324.68085 458.3611 325.20724 458.8019C 325.73395 459.2424 325.99924 459.75772 325.99924 460.3479C 325.99924 460.7289 325.88693 461.05 325.66675 461.3187C 325.44644 461.5841 325.05814 461.8157 324.50534 462.0098C 324.12805 462.1442 323.26913 462.3758 321.92474 462.712C 320.19556 463.1451 318.98175 463.6755 318.28363 464.30652C 317.30133 465.1917 316.81213 466.2709 316.81213 467.54453C 316.81213 468.36234 317.04373 469.13162 317.50293 469.84512C 317.96582 470.55832 318.63083 471.09973 319.50104 471.47333C 320.37103 471.84662 321.41675 472.03342 322.64923 472.03342C 324.65472 472.03342 326.16702 471.58893 327.17923 470.69632C 328.19492 469.80402 328.72534 468.61633 328.77774 467.12613L328.77774 467.12613L325.52835 467.01413C 325.39035 467.84323 325.09525 468.43713 324.64346 468.79944C 324.19156 469.16165 323.51187 469.34454 322.60815 469.34454C 321.67447 469.34454 320.94257 469.15033 320.41586 468.76205C 320.07596 468.51175 319.90417 468.17944 319.90417 467.76105C 319.90417 467.38016 320.06488 467.05524 320.38608 466.78625C 320.79318 466.43906 321.78268 466.08044 323.35507 465.70715C 324.9272 465.33746 326.08887 464.94916 326.83948 464.55316C 327.59378 464.15347 328.18387 463.61206 328.60968 462.92096C 329.0355 462.23016 329.2483 461.37866 329.2483 460.36667C 329.2483 459.44797 328.9944 458.58536 328.4827 457.78226C 327.9711 456.97925 327.25018 456.38165 326.3165 455.99335C 325.383 455.60135 324.2177 455.40714 322.8248 455.40714C 320.7969 455.40714 319.2395 455.87375 318.1527 456.81143C 317.06622 457.74484 316.41992 459.10803 316.207 460.89694zM335.61176 455.69818L335.61176 469.03067L330.86145 469.03067L330.86145 471.74197L343.58905 471.74197L343.58905 469.03067L338.86084 469.03067L338.86084 455.69818zM345.69156 455.69818L345.69156 471.74197L352.51456 471.74197C 354.22867 471.74197 355.47617 471.59628 356.25287 471.30887C 357.03348 471.02136 357.65347 470.50946 358.12006 469.77386C 358.58685 469.03458 358.82214 468.19415 358.82214 467.24567C 358.82214 466.03928 358.47125 465.04596 357.76535 464.26166C 357.05954 463.47726 356.00656 462.98434 354.60226 462.77905C 355.30035 462.37204 355.87585 461.92386 356.32767 461.43466C 356.78317 460.94537 357.39548 460.07516 358.16507 458.82785L358.16507 458.82785L360.12186 455.69815L356.24915 455.69815L353.92615 459.20126C 353.09335 460.44507 352.52185 461.22916 352.21204 461.55396C 351.90594 461.87515 351.58075 462.09937 351.23743 462.21896C 350.88992 462.33835 350.34482 462.39816 349.59793 462.39816L349.59793 462.39816L348.94052 462.39816L348.94052 455.69815zM348.94055 464.95248L351.33817 464.95248C 352.89175 464.95248 353.85898 465.0199 354.24738 465.15057C 354.632 465.28128 354.93817 465.50888 355.15497 465.83008C 355.37527 466.1515 355.48358 466.55457 355.48358 467.03647C 355.48358 467.57788 355.3379 468.01126 355.05038 468.34717C 354.7627 468.67966 354.35568 468.88885 353.8329 468.97476C 353.5676 469.01196 352.77957 469.03067 351.46887 469.03067L351.46887 469.03067L348.94058 469.03067zM361.87335 471.74197L365.12247 471.74197L365.12247 463.0482C 365.12247 461.6663 365.16357 460.7736 365.24207 460.36658C 365.38016 459.70917 365.70496 459.17886 366.22028 458.78308C 366.7397 458.38348 367.44547 458.18558 368.34177 458.18558C 369.24918 458.18558 369.93628 458.37207 370.39948 458.7494C 370.86258 459.12668 371.13898 459.58588 371.23227 460.13498C 371.32547 460.68408 371.37427 461.59137 371.37427 462.8614L371.37427 462.8614L371.37427 471.742L374.62308 471.742L374.62308 463.30582C 374.62308 461.37863 374.53748 460.0154 374.36197 459.22003C 374.18628 458.42462 373.86508 457.75223 373.39456 457.20343C 372.92767 456.65433 372.30035 456.22122 371.51596 455.89633C 370.72797 455.57153 369.70496 455.40714 368.43866 455.40714C 366.91135 455.40714 365.75345 455.58264 364.96567 455.93744C 364.17767 456.29214 363.55408 456.75165 363.09457 457.31915C 362.63538 457.88684 362.33658 458.47675 362.1909 459.10065C 361.978 460.01935 361.87338 461.37866 361.87338 463.17496zM388.31775 461.61377L391.45483 460.65027C 390.97293 458.88406 390.17023 457.57297 389.04962 456.71408C 387.9294 455.8589 386.5104 455.42947 384.78864 455.42947C 382.65613 455.42947 380.90463 456.15768 379.53033 457.61407C 378.15982 459.0706 377.47275 461.06107 377.47275 463.58957C 377.47275 466.25977 378.16354 468.33618 379.54175 469.81497C 380.91965 471.29388 382.73465 472.0334 384.98285 472.0334C 386.94724 472.0334 388.54196 471.4509 389.76685 470.28928C 390.49875 469.60208 391.04416 468.61627 391.41003 467.32788L391.41003 467.32788L388.20584 466.56598C 388.01535 467.39508 387.61963 468.05237 387.01804 468.53397C 386.41315 469.01587 385.68124 469.25485 384.82233 469.25485C 383.63092 469.25485 382.66373 468.82904 381.92422 467.97385C 381.18094 467.12234 380.8113 465.74045 380.8113 463.82846C 380.8113 461.80426 381.1773 460.35916 381.90552 459.49997C 382.63742 458.63736 383.58612 458.20798 384.7549 458.20798C 385.6177 458.20798 386.36102 458.48068 386.98093 459.02948C 387.60083 459.57858 388.049 460.43738 388.31772 461.61377zM397.84476 455.69818L397.84476 469.03067L393.09445 469.03067L393.09445 471.74197L405.82175 471.74197L405.82175 469.03067L401.09384 469.03067L401.09384 455.69818zM407.81226 455.69818L407.81226 471.74197L411.06125 471.74197L411.06125 455.69818zM413.47757 463.623C 413.47757 465.25888 413.72418 466.6331 414.21338 467.74597C 414.57568 468.5641 415.076 469.29968 415.70728 469.94937C 416.3383 470.59937 417.0294 471.08096 417.77997 471.39847C 418.78085 471.82047 419.93488 472.03336 421.24197 472.03336C 423.60968 472.03336 425.49927 471.29776 426.92227 469.82996C 428.34128 468.35855 429.05078 466.31564 429.05078 463.69785C 429.05078 461.10214 428.34497 459.07056 426.9373 457.60675C 425.52908 456.13895 423.6432 455.40704 421.28668 455.40704C 418.90027 455.40704 416.99927 456.13525 415.59137 457.59534C 414.18365 459.05212 413.47757 461.06104 413.47757 463.62292zM416.81647 463.7313C 416.81647 461.9126 417.23856 460.5347 418.07877 459.5936C 418.91898 458.6562 419.98706 458.1856 421.27936 458.1856C 422.57504 458.1856 423.63577 458.6525 424.46857 459.5822C 425.29776 460.51602 425.71216 461.91263 425.71216 463.77612C 425.71216 465.61752 425.30875 466.99173 424.49835 467.89542C 423.69186 468.80283 422.61984 469.2549 421.27936 469.2549C 419.94226 469.2549 418.86307 468.7954 418.04495 467.8807C 417.22714 466.962 416.81647 465.5801 416.81647 463.7313zM431.57907 455.69818L431.57907 471.74197L434.7238 471.74197L441.3266 460.99017L441.3266 471.74197L444.329 471.74197L444.329 455.69818L441.08362 455.69818L434.58182 466.24478L434.58182 455.69818z" stroke="none" fill="#FFFFFF" fill-rule="nonzero" />
			</g>
		</g>
	</g>
</g>
</svg>