<svg xmlns="http://www.w3.org/2000/svg" xmlns:xlink="http://www.w3.org/1999/xlink" width="254.2pt" height="78.5pt" viewBox="0 0 254.2 78.5"><defs><style>.cls-1{fill:none;}.cls-2{clip-path:url(#clip-path);}.cls-3{fill:#1b3d6e;}</style><clipPath id="clip-path" transform="translate(0 0)"><rect class="cls-1" width="353" height="105"/></clipPath></defs><g id="Layer_2" data-name="Layer 2"><g id="Слой_1" data-name="Слой 1"><g class="cls-2"><polygon class="cls-3" points="129.75 46.63 114.89 65.78 106.96 46.63 96.67 46.63 105.21 67.25 113.76 67.25 102.59 81.66 113.96 81.66 141.12 46.63 129.75 46.63"/><polygon class="cls-3" points="50.76 81.65 60.49 81.65 46.11 46.63 35.62 46.63 21.47 68.47 12.94 81.65 23.61 81.65 27.18 76 40 76 44.75 68.47 32.14 68.47 40.22 55.99 50.76 81.65"/></g><g class="cls-2"><path class="cls-3" d="M95.67,51.42a13.18,13.18,0,0,0-10.19-4.79H63L58.62,70,63.4,81.66H82.74A14.52,14.52,0,0,0,97,70l1.45-7.71a13,13,0,0,0-2.75-10.89m-5.79,9.21-1.45,7.71A5.8,5.8,0,0,1,82.74,73H67l3.24-17.7H85.48a4.47,4.47,0,0,1,4.4,5.34" transform="translate(0 0)"/><path class="cls-3" d="M53.4,23H169.84L187.63.07H76C43.4.07,14,18.54.31,47a.59.59,0,0,0,1,.6A67.17,67.17,0,0,1,53.4,23" transform="translate(0 0)"/><path class="cls-3" d="M141.38,81.65c-8.2,12.79-22.51,21-37.23,21H1.13L0,105H126.52c15.59,0,30.72-9.25,38.62-23.35Z" transform="translate(0 0)"/><path class="cls-3" d="M211.09,17.81l7.15-16.62h2.61L228,17.81h-3.36l-1.31-3.13h-7.57l-1.31,3.13Zm8.47-12.09-2.56,6h5.08Z" transform="translate(0 0)"/><polygon class="cls-3" points="229.03 15.63 235.07 8.17 229.15 8.17 229.15 5.46 239.17 5.46 239.17 7.65 233.11 15.11 239.29 15.11 239.29 17.81 229.03 17.81 229.03 15.63"/><path class="cls-3" d="M250.39,10.55a3.68,3.68,0,0,0-3.65-2.71,3.54,3.54,0,0,0-2.89,1.3L241,8.29A6.94,6.94,0,0,1,251.53,7a6.18,6.18,0,0,1,1.94,4.66A6.39,6.39,0,0,1,247,18.17a6.34,6.34,0,0,1-6.51-6.53,5.11,5.11,0,0,1,.09-1.09Zm-6.87,2.3a3.55,3.55,0,0,0,6.84,0Z" transform="translate(0 0)"/><path class="cls-3" d="M258.53,7a4.56,4.56,0,0,1,4.08-1.87v3.3a3,3,0,0,0-1.22-.26A2.79,2.79,0,0,0,258.53,11v6.79h-3V5.46h3Z" transform="translate(0 0)"/><path class="cls-3" d="M264.23,0h3V6.44A5.83,5.83,0,0,1,271,5.11,5.63,5.63,0,0,1,275.28,7,6.49,6.49,0,0,1,277,11.64a6.57,6.57,0,0,1-1.74,4.68A5.72,5.72,0,0,1,271,18.17a5.83,5.83,0,0,1-3.75-1.33v1h-3Zm6.35,8.08a3.08,3.08,0,0,0-2.36,1,3.53,3.53,0,0,0-1,2.54,3.53,3.53,0,0,0,1,2.54,3.24,3.24,0,0,0,4.72,0,3.58,3.58,0,0,0,1-2.54,3.58,3.58,0,0,0-1-2.54,3.08,3.08,0,0,0-2.36-1" transform="translate(0 0)"/><path class="cls-3" d="M288.43,6.44v-1h3V17.81h-3v-1a5.9,5.9,0,0,1-3.77,1.33,5.72,5.72,0,0,1-4.32-1.85,6.65,6.65,0,0,1-1.72-4.68A6.56,6.56,0,0,1,280.34,7a5.63,5.63,0,0,1,4.32-1.87,5.9,5.9,0,0,1,3.77,1.33M285,8.08a3.16,3.16,0,0,0-2.39,1,3.56,3.56,0,0,0-.95,2.54,3.56,3.56,0,0,0,.95,2.54,3.16,3.16,0,0,0,2.39,1,3.08,3.08,0,0,0,2.36-1,3.58,3.58,0,0,0,1-2.54,3.58,3.58,0,0,0-1-2.54,3.08,3.08,0,0,0-2.36-1" transform="translate(0 0)"/><path class="cls-3" d="M297.64,17.58,292.87,5.46h3.07l3.18,8.34,3.24-8.34h3.08l-5.61,14c-1.05,2.59-2.67,3.73-5.41,3.73h-.48V20.33h.48a2.83,2.83,0,0,0,2.88-1.9Z" transform="translate(0 0)"/><path class="cls-3" d="M315.68,10.07a3.38,3.38,0,0,0-3.15-2,3.31,3.31,0,0,0-2.48,1,3.48,3.48,0,0,0-1,2.54,3.48,3.48,0,0,0,1,2.54,3.3,3.3,0,0,0,2.48,1,3.37,3.37,0,0,0,3.15-2l3,.88A6.56,6.56,0,0,1,306,11.64a6.38,6.38,0,0,1,6.56-6.53,6.4,6.4,0,0,1,6.13,4.08Z" transform="translate(0 0)"/><path class="cls-3" d="M329.85,6.44v-1h3V17.81h-3v-1a5.87,5.87,0,0,1-3.77,1.33,5.72,5.72,0,0,1-4.32-1.85,6.68,6.68,0,0,1-1.71-4.68A6.6,6.6,0,0,1,321.76,7a5.63,5.63,0,0,1,4.32-1.87,5.87,5.87,0,0,1,3.77,1.33m-3.39,1.64a3.13,3.13,0,0,0-2.38,1,3.57,3.57,0,0,0-1,2.54,3.57,3.57,0,0,0,1,2.54,3.28,3.28,0,0,0,4.75,0,3.58,3.58,0,0,0,1-2.54,3.58,3.58,0,0,0-1-2.54,3.11,3.11,0,0,0-2.37-1" transform="translate(0 0)"/><path class="cls-3" d="M335.34,5.46h3V7a4.34,4.34,0,0,1,3.72-1.85,4.75,4.75,0,0,1,4.89,4.82v7.88h-3v-7a2.82,2.82,0,1,0-5.63,0v7h-3Z" transform="translate(0 0)"/><path class="cls-3" d="M212.26,46.32V29.7H219a8.61,8.61,0,0,1,6.21,2.39,8.25,8.25,0,0,1,0,11.83,8.62,8.62,0,0,1-6.21,2.4Zm3.19-13.68V43.38H219a5.37,5.37,0,1,0,0-10.74Z" transform="translate(0 0)"/><path class="cls-3" d="M239.2,39.05a3.69,3.69,0,0,0-3.65-2.7,3.5,3.5,0,0,0-2.89,1.3l-2.89-.85a6.92,6.92,0,0,1,10.57-1.31,6.16,6.16,0,0,1,1.94,4.65,6.52,6.52,0,1,1-13,0,5.16,5.16,0,0,1,.09-1.09Zm-6.88,2.31A3.6,3.6,0,0,0,235.81,44a3.54,3.54,0,0,0,3.36-2.59Z" transform="translate(0 0)"/><path class="cls-3" d="M244.35,46.32V34h3v1.31a4.17,4.17,0,0,1,3.49-1.67,4.37,4.37,0,0,1,3.91,2,4.43,4.43,0,0,1,4-2,4.91,4.91,0,0,1,3.53,1.31,4.31,4.31,0,0,1,1.41,3.28v8.12h-3V39.05a2.59,2.59,0,1,0-5.18,0v7.27h-3V39.05a2.59,2.59,0,1,0-5.18,0v7.27Z" transform="translate(0 0)"/><path class="cls-3" d="M265.76,31a1.84,1.84,0,0,1,1.88-1.88A1.89,1.89,0,1,1,265.76,31m.4,3h3V46.32h-3Z" transform="translate(0 0)"/><path class="cls-3" d="M274.66,35.49a4.58,4.58,0,0,1,4.08-1.88v3.31a3,3,0,0,0-1.22-.27,2.8,2.8,0,0,0-2.86,2.88v6.79h-3V34h3Z" transform="translate(0 0)"/><polygon class="cls-3" points="285.47 29.69 289.17 29.69 293.39 36.53 297.75 29.69 301.43 29.69 295.01 39.43 295.01 46.32 291.81 46.32 291.81 39.53 285.47 29.69"/><path class="cls-3" d="M300.26,40.14a6.64,6.64,0,0,1,11.27-4.65,6.23,6.23,0,0,1,1.88,4.65,6.32,6.32,0,0,1-1.88,4.68,6.57,6.57,0,0,1-11.27-4.68m3.08,0a3.52,3.52,0,0,0,1,2.55,3.54,3.54,0,0,0,5,0,3.74,3.74,0,0,0,0-5.09,3.54,3.54,0,0,0-5,0,3.52,3.52,0,0,0-1,2.54" transform="translate(0 0)"/><rect class="cls-3" x="315.46" y="28.51" width="2.98" height="17.82"/><rect class="cls-3" x="320.98" y="28.51" width="2.98" height="17.82"/><path class="cls-3" d="M335.84,34.94V34h3V46.32h-3v-1a5.88,5.88,0,0,1-3.77,1.33,5.72,5.72,0,0,1-4.32-1.85A6.7,6.7,0,0,1,326,40.15a6.58,6.58,0,0,1,1.71-4.66,5.64,5.64,0,0,1,4.32-1.88,5.88,5.88,0,0,1,3.77,1.33m-3.39,1.64a3.16,3.16,0,0,0-2.38,1,3.85,3.85,0,0,0,0,5.09,3.28,3.28,0,0,0,4.75,0,3.82,3.82,0,0,0,0-5.09,3.14,3.14,0,0,0-2.37-1" transform="translate(0 0)"/><path class="cls-3" d="M344.31,35.49a4.58,4.58,0,0,1,4.08-1.88v3.31a2.93,2.93,0,0,0-1.21-.27,2.8,2.8,0,0,0-2.87,2.88v6.79h-3V34h3Z" transform="translate(0 0)"/><rect class="cls-3" x="350.02" y="33.97" width="2.98" height="12.35"/></g></g></g></svg>