<svg width="315" height="77" viewBox="0 0 315 77" fill="none" xmlns="http://www.w3.org/2000/svg">
<path d="M17.2293 8.34712H35.0967V5.0083H13.8066V8.00172V8.34712V12.0313H17.2293V8.34712Z" fill="#D7A461"/>
<path d="M59.8092 21.3569C59.8092 24.1201 57.5468 26.3076 54.8202 26.3076H50.4694H47.1048H45.2484C42.4639 26.3076 40.2595 24.0625 40.2595 21.3569V8.34704V0H36.8948V8.34704V21.3569C36.8948 24.1201 34.6324 26.3076 31.9059 26.3076H30.0495H26.6849H22.3341C19.5495 26.3076 17.3451 24.0625 17.3451 21.3569V18.7664H13.9805V21.3569C13.9805 25.9622 17.7512 29.6464 22.3341 29.6464H26.6849H30.0495H31.9059C34.6324 29.6464 37.0689 28.3224 38.5772 26.3076C40.0854 28.3224 42.5219 29.6464 45.2484 29.6464H54.8783C59.5191 29.6464 63.2318 25.9046 63.2318 21.3569V18.7664H59.8672V21.3569H59.8092Z" fill="#D7A461"/>
<path d="M41.9419 5.0083V8.34712H59.8093V12.0313H63.1739V8.34712V5.0083H41.9419Z" fill="#D7A461"/>
<path d="M35.0967 68.0427H17.2293V64.416H13.8066V68.0427V71.3815H35.0967V68.0427Z" fill="#D7A461"/>
<path d="M54.8204 46.7432H45.1906C42.4641 46.7432 40.0276 48.0672 38.5193 50.082C37.0111 48.0672 34.5746 46.7432 31.8481 46.7432H29.9337H26.5691H22.2182C17.5774 46.7432 13.8066 50.4849 13.8066 55.0326V57.6231H17.1713V55.0326C17.1713 52.2695 19.4337 50.082 22.1602 50.082H26.5111H29.8757H31.7321C34.5166 50.082 36.721 52.327 36.721 55.0326V68.0425V76.3895H40.0856V64.7037V55.0326C40.0856 52.2695 42.3481 50.082 45.0746 50.082H46.931H50.4696H54.8204C57.605 50.082 59.8094 52.327 59.8094 55.0326V57.6231H63.174V55.0326C63.174 50.4274 59.4033 46.7432 54.8204 46.7432Z" fill="#D7A461"/>
<path d="M59.8093 68.0427H41.9419V71.3815H63.1739V68.4456V68.0427V64.416H59.8093V68.0427Z" fill="#D7A461"/>
<path d="M50.4696 44.8435C50.4696 42.0803 52.7321 39.8928 55.4586 39.8928H68.5691H76.9807V36.554H68.5691H55.4586C52.674 36.554 50.4696 34.309 50.4696 31.6034V31.4307H47.105V31.6034C47.105 34.309 48.4392 36.7267 50.4696 38.2234C48.4392 39.7201 47.105 42.1379 47.105 44.8435V45.0162H50.4696V44.8435Z" fill="#D7A461"/>
<path d="M50.4696 22.0477C50.4696 19.2846 52.7321 17.0971 55.4586 17.0971H59.8094H63.174H68.5691V34.8273H71.9337V13.7007H68.9171H68.5691H63.174H59.8094H55.4586C50.8177 13.7007 47.105 17.4425 47.105 21.9902V24.5806H50.4696V22.0477Z" fill="#D7A461"/>
<path d="M68.5691 41.6201V59.3504H63.174H59.8094H55.4586C52.674 59.3504 50.4696 57.1053 50.4696 54.3997V51.8093H47.105V54.3997C47.105 59.005 50.8757 62.7468 55.4586 62.7468H59.8094H63.174H68.5691H71.9337V41.6201H68.5691Z" fill="#D7A461"/>
<path d="M26.569 54.3997C26.569 57.1629 24.3065 59.3504 21.58 59.3504H17.2292H13.8646H8.46953V41.6201H5.04688V62.7468H8.06345H8.41152H13.8065H17.1712H21.522C26.1629 62.7468 29.8756 59.005 29.8756 54.4573V51.8093H26.511V54.3997H26.569Z" fill="#D7A461"/>
<path d="M21.522 13.7007H17.1712H13.8065H8.41152H5.04688V34.8273H8.41152V17.0971H21.522C24.3065 17.0971 26.511 19.3421 26.511 22.0477V24.6382H29.8756V22.0477C29.9336 17.4425 26.1629 13.7007 21.522 13.7007Z" fill="#D7A461"/>
<path d="M26.5691 31.5457C26.5691 34.3089 24.3066 36.4964 21.5801 36.4964H8.4116H0V39.8352H8.4116H21.5221C24.3066 39.8352 26.511 42.0803 26.511 44.7859V44.9586H29.8757V44.7859C29.8757 42.0803 28.5414 39.6625 26.511 38.1658C28.5414 36.6691 29.8757 34.2513 29.8757 31.5457V31.373H26.511V31.5457H26.5691Z" fill="#D7A461"/>
<path d="M104.479 60.1567H103.377V56.1271H98.504V60.1567H97.3438V51.3491H98.504V55.1485H103.377V51.3491H104.479V60.1567Z" fill="#D7A461"/>
<path d="M111.209 60.1566H111.035C110.455 60.1566 109.875 60.0415 109.352 59.7537C108.83 59.5234 108.366 59.178 108.018 58.7175C107.67 58.3145 107.38 57.7964 107.206 57.2783C107.032 56.7603 106.916 56.1846 106.916 55.6665C106.916 54.5152 107.322 53.479 108.134 52.6155C108.946 51.752 109.933 51.2915 111.093 51.2915H111.209C112.369 51.2915 113.297 51.752 114.109 52.6731C114.922 53.5941 115.328 54.5728 115.328 55.7241V55.8392C115.328 56.5876 115.154 57.2783 114.806 57.9116C114.457 58.6024 113.935 59.1205 113.297 59.5234C112.659 59.9264 111.963 60.1566 111.209 60.1566ZM111.209 59.178C112.079 59.178 112.775 58.8326 113.355 58.1418C113.935 57.451 114.225 56.6451 114.225 55.7816C114.225 54.8606 113.935 54.0547 113.355 53.3639C112.775 52.6731 112.079 52.3853 111.209 52.3853H111.151C110.281 52.3853 109.585 52.7306 109.004 53.4214C108.424 54.1122 108.134 54.8606 108.134 55.7241C108.134 56.3573 108.25 56.8754 108.482 57.3935C108.714 57.9116 109.062 58.3145 109.527 58.6599C109.991 59.0053 110.513 59.178 111.093 59.178H111.209Z" fill="#D7A461"/>
<path d="M121.187 60.1567H120.084V52.3277H117.01V51.3491H124.261V52.3277H121.187V60.1567Z" fill="#D7A461"/>
<path d="M132.498 60.1567H126.465V51.3491H132.382V52.3277H127.568V55.1485H131.744V56.1271H127.568V59.1781H132.498V60.1567Z" fill="#D7A461"/>
<path d="M141.084 60.1567H134.993V51.3491H136.095V59.1781H141.084V60.1567Z" fill="#D7A461"/>
<path d="M154.601 60.1567H153.383L152.338 57.5662H148.626C148.51 57.8541 148.162 58.7175 147.582 60.1567H146.363L150.018 51.3491H150.946L154.601 60.1567ZM152.106 56.7027L150.482 52.6156L148.858 56.7027H152.106Z" fill="#D7A461"/>
<path d="M164.231 60.1567H163.303L157.85 53.4215V60.1567H156.748V51.3491H157.618L163.071 58.1995V51.3491H164.231V60.1567Z" fill="#D7A461"/>
<path d="M170.38 60.1567H167.305V51.3491H170.38C171.366 51.3491 172.178 51.5794 172.816 51.9823C173.454 52.3853 173.918 52.9034 174.208 53.5942C174.499 54.2274 174.673 54.9758 174.673 55.7817C174.673 57.1057 174.325 58.1419 173.57 59.0054C172.758 59.7537 171.714 60.1567 170.38 60.1567ZM170.38 59.1781C171.076 59.1781 171.656 59.0054 172.12 58.7175C172.584 58.4297 172.932 58.0268 173.164 57.5087C173.396 56.9906 173.512 56.4149 173.512 55.7817C173.512 55.1485 173.396 54.5728 173.164 54.0547C172.932 53.5366 172.584 53.1337 172.12 52.8458C171.656 52.558 171.076 52.3853 170.38 52.3853H168.407V59.2356H170.38V59.1781Z" fill="#D7A461"/>
<path d="M188.073 60.1567H186.797L184.766 56.9906H182.388V60.1567H181.286V51.3491H185.056C185.811 51.3491 186.449 51.6369 186.971 52.2702C187.493 52.8458 187.725 53.4791 187.725 54.1698C187.725 54.7455 187.551 55.3212 187.261 55.7817C186.971 56.2422 186.507 56.5876 185.869 56.7603L188.073 60.1567ZM185.056 56.0119C185.52 56.0119 185.927 55.8393 186.217 55.4363C186.507 55.0333 186.623 54.6304 186.623 54.1698C186.623 53.6518 186.449 53.2488 186.159 52.9034C185.811 52.558 185.462 52.3853 185.056 52.3853H182.446V56.0695H185.056V56.0119Z" fill="#D7A461"/>
<path d="M196.484 60.1567H190.451V51.3491H196.31V52.3277H191.553V55.1485H195.73V56.1271H191.553V59.1781H196.484V60.1567Z" fill="#D7A461"/>
<path d="M201.88 60.1566C200.488 60.1566 199.327 59.7537 198.283 58.9478L198.805 58.0267C199.037 58.3145 199.443 58.5448 199.966 58.7751C200.488 59.0053 201.126 59.1204 201.88 59.1204C203.214 59.1204 203.91 58.6599 203.91 57.7964C203.91 57.1632 203.446 56.7027 202.46 56.4149L201.358 56.127C200.43 55.9543 199.733 55.6665 199.269 55.3211C198.805 54.9757 198.573 54.5152 198.573 53.8244C198.573 53.0185 198.863 52.3853 199.443 51.9247C200.024 51.4642 200.778 51.2915 201.706 51.2915C202.866 51.2915 203.794 51.6369 204.606 52.3853L204.084 53.2487C203.91 53.0185 203.62 52.7882 203.156 52.5579C202.75 52.3277 202.228 52.2701 201.648 52.2701C200.314 52.2701 199.675 52.7306 199.675 53.7093C199.675 54.1698 199.85 54.5152 200.256 54.6879C200.662 54.8606 201.242 55.0333 201.996 55.206C203.04 55.4362 203.794 55.7241 204.316 56.0695C204.78 56.4149 205.012 56.9905 205.012 57.6813C205.012 58.4872 204.722 59.0629 204.084 59.4658C203.562 59.9264 202.808 60.1566 201.88 60.1566Z" fill="#D7A461"/>
<path d="M208.609 51.3491H207.506V60.1567H208.609V51.3491Z" fill="#D7A461"/>
<path d="M214.759 60.1567H211.684V51.3491H214.759C215.745 51.3491 216.557 51.5794 217.195 51.9823C217.833 52.3853 218.297 52.9034 218.587 53.5942C218.877 54.2274 219.052 54.9758 219.052 55.7817C219.052 57.1057 218.703 58.1419 217.949 59.0054C217.137 59.7537 216.093 60.1567 214.759 60.1567ZM214.759 59.1781C215.455 59.1781 216.035 59.0054 216.499 58.7175C216.963 58.4297 217.311 58.0268 217.543 57.5087C217.775 56.9906 217.891 56.4149 217.891 55.7817C217.891 55.1485 217.775 54.5728 217.543 54.0547C217.311 53.5366 216.963 53.1337 216.499 52.8458C216.035 52.558 215.455 52.3853 214.759 52.3853H212.786V59.2356H214.759V59.1781Z" fill="#D7A461"/>
<path d="M227.579 60.1567H221.546V51.3491H227.463V52.3277H222.706V55.1485H226.883V56.1271H222.706V59.1781H227.579V60.1567Z" fill="#D7A461"/>
<path d="M237.557 60.1567H236.628L231.175 53.4215V60.1567H230.073V51.3491H230.943L236.454 58.1995V51.3491H237.557V60.1567Z" fill="#D7A461"/>
<path d="M244.228 60.1567H244.17C243.589 60.1567 243.067 60.0416 242.545 59.7537C242.023 59.5235 241.617 59.1781 241.211 58.7175C240.863 58.3146 240.573 57.7965 240.341 57.2784C240.109 56.7603 240.051 56.2422 240.051 55.7241V55.6666C240.051 54.9758 240.225 54.285 240.515 53.6518C240.805 53.0185 241.327 52.4429 241.965 52.0399C242.603 51.5794 243.415 51.3491 244.228 51.3491C245.04 51.3491 245.678 51.5218 246.258 51.8672C246.838 52.2126 247.244 52.6731 247.534 53.2488L246.664 53.8245C246.142 52.8458 245.33 52.3277 244.17 52.3277H244.112C243.647 52.3277 243.241 52.4429 242.893 52.6156C242.487 52.8458 242.197 53.0761 241.907 53.4215C241.675 53.7669 241.443 54.1123 241.327 54.5152C241.211 54.9182 241.153 55.3212 241.153 55.7241C241.153 56.6452 241.443 57.4511 242.023 58.1419C242.603 58.8327 243.357 59.1781 244.228 59.1781C244.692 59.1781 245.156 59.0629 245.678 58.8327C246.142 58.5448 246.548 58.1419 246.78 57.6238L247.708 58.1419C247.418 58.7751 246.896 59.2932 246.258 59.6386C245.62 59.984 244.924 60.1567 244.228 60.1567Z" fill="#D7A461"/>
<path d="M256.12 60.1567H250.087V51.3491H256.004V52.3277H251.247V55.1485H255.366V56.1271H251.247V59.1781H256.12V60.1567Z" fill="#D7A461"/>
<path d="M261.516 60.1566C260.123 60.1566 258.963 59.7537 257.919 58.9478L258.441 58.0267C258.673 58.3145 259.079 58.5448 259.601 58.7751C260.123 59.0053 260.761 59.1204 261.516 59.1204C262.85 59.1204 263.546 58.6599 263.546 57.7964C263.546 57.1632 263.082 56.7027 262.096 56.4149L260.994 56.127C260.065 55.9543 259.369 55.6665 258.905 55.3211C258.441 54.9757 258.209 54.5152 258.209 53.8244C258.209 53.0185 258.499 52.3853 259.079 51.9247C259.659 51.4642 260.413 51.2915 261.342 51.2915C262.502 51.2915 263.43 51.6369 264.242 52.3853L263.72 53.2487C263.546 53.0185 263.256 52.7882 262.792 52.5579C262.386 52.3277 261.864 52.2701 261.284 52.2701C259.949 52.2701 259.311 52.7306 259.311 53.7093C259.311 54.1698 259.485 54.5152 259.891 54.6879C260.297 54.8606 260.878 55.0333 261.632 55.206C262.676 55.4362 263.43 55.7241 263.952 56.0695C264.416 56.4149 264.648 56.9905 264.648 57.6813C264.648 58.4872 264.358 59.0629 263.72 59.4658C263.256 59.9264 262.502 60.1566 261.516 60.1566Z" fill="#D7A461"/>
<path d="M97.2847 16.1182H108.771C114.688 16.1182 117.414 17.7876 117.414 21.5293C117.414 23.5441 116.37 24.9833 114.224 25.7892V26.077C116.834 26.7103 118.169 28.2645 118.169 30.6823C118.169 34.4816 115.5 36.2662 109.525 36.2662H97.2847V16.1182ZM101.229 19.2843V24.6379H108.713C112.019 24.6379 113.412 23.832 113.412 21.9899C113.412 20.1478 112.019 19.3418 108.713 19.3418H101.229V19.2843ZM101.229 27.3435V33.0425H109.409C112.716 33.0425 114.108 32.179 114.108 30.1642C114.108 28.1494 112.716 27.3435 109.409 27.3435H101.229Z" fill="#D7A461"/>
<path d="M130.641 16.1182H137.892L146.594 36.2662H142.417L140.503 31.7761H128.031L126.116 36.2662H121.939L130.641 16.1182ZM139.227 28.7251L135.34 19.5145H133.136L129.249 28.7251H139.227Z" fill="#D7A461"/>
<path d="M151.525 16.1182H162.721C169.334 16.1182 173.511 19.9751 173.511 26.1922C173.511 32.4093 169.392 36.2662 162.721 36.2662H151.525V16.1182ZM155.47 19.3418V33.0425H162.721C166.782 33.0425 169.508 30.5672 169.508 26.1922C169.508 21.8172 166.782 19.3418 162.721 19.3418H155.47Z" fill="#D7A461"/>
<path d="M184.881 16.1182H192.133L200.834 36.2662H196.658L194.743 31.7761H182.271L180.356 36.2662H176.18L184.881 16.1182ZM193.467 28.7251L189.58 19.5145H187.376L183.489 28.7251H193.467Z" fill="#D7A461"/>
<path d="M205.765 16.1182H209.942L218.063 26.3073H218.818L226.939 16.1182H231.116V36.2662H227.171V22.105H226.707L220.152 30.3369H216.671L210.174 22.105H209.71V36.2662H205.765V16.1182Z" fill="#D7A461"/>
<path d="M238.078 16.1182H249.274C255.887 16.1182 260.064 19.9751 260.064 26.1922C260.064 32.4093 255.945 36.2662 249.274 36.2662H238.078V16.1182ZM242.022 19.3418V33.0425H249.274C253.335 33.0425 256.061 30.5672 256.061 26.1922C256.061 21.8172 253.335 19.3418 249.274 19.3418H242.022Z" fill="#D7A461"/>
<path d="M271.434 16.1182H278.685L287.387 36.2662H283.21L281.296 31.7761H268.824L266.909 36.2662H262.732L271.434 16.1182ZM280.078 28.7251L276.191 19.5145H273.987L270.1 28.7251H280.078Z" fill="#D7A461"/>
<path d="M292.318 16.1182H304.036C309.953 16.1182 312.796 18.3632 312.796 22.5655C312.796 26.1346 310.881 28.3221 307.459 28.4948C307.401 28.5524 307.227 28.5524 307.169 28.5524C309.141 30.3369 310.301 32.8122 312.274 32.8122H314.71V36.2662H311.578C306.531 36.2662 305.95 29.3583 300.671 28.7826H296.263V36.2086H292.318V16.1182ZM296.263 19.3418V25.9043H303.978C307.401 25.9043 308.793 24.8682 308.793 22.6231C308.793 20.4356 307.401 19.3418 303.978 19.3418H296.263Z" fill="#D7A461"/>
</svg>
